<svg xmlns="http://www.w3.org/2000/svg" width="256" height="256"><path fill-opacity=".016" d="M0 128.004v128.004l128.25-.254 128.25-.254.254-127.75L257.008 0H0v128.004m.485.496c0 70.4.119 99.053.265 63.672.146-35.38.146-92.98 0-128C.604 29.153.485 58.1.485 128.5" fill="#1976D2" fill-rule="evenodd"/><path fill-opacity=".394" d="M123.5 14.747c-7.562 1.389-17.133 9.745-18.042 15.753-.083.55-.496 1.795-.918 2.767-.422.971-.551 2.895-.287 4.274.593 3.102-.347 3.754-3.62 2.51-2.256-.858-2.876-.532-5.656 2.978-2.398 3.028-2.943 4.466-2.353 6.206.422 1.246.66 2.828.528 3.515-.301 1.57 1.545 1.659 2.065.1.21-.632.984-.95 1.72-.704.883.294.399 1.059-1.428 2.256-3.807 2.495-12.729 3.093-20.162 1.352-3.876-.908-6.75-1.108-7.765-.54-2.633 1.474-8.853 1.574-12.299.199-1.869-.746-7.195-1.262-12.706-1.232-7.532.041-9.827-.288-11.138-1.599-3.443-3.443-9.447 1.003-8.654 6.409.583 3.972 2.034 4.571 14.629 6.039 5.453.636 10.853 1.574 12 2.084 1.823.811 1.739.88-.664.546-4.119-.573-3.427 1.968.719 2.641 1.908.31 4.48 1.505 5.715 2.656 1.331 1.24 2.871 1.823 3.781 1.432 2.134-.917 6.248-.576 7.441.617.547.547 2.452.994 4.235.994 1.783 0 3.471.372 3.752.827.281.455 3.12.909 6.309 1.008 3.189.1 8.758.686 12.375 1.303 4.481.763 8.359.813 12.169.157 4.913-.846 5.784-.741 7.164.871 1.46 1.705 1.403 1.834-.813 1.834-2.781 0-3.86 2.103-2.946 5.744.523 2.086.344 2.468-.928 1.98-2.568-.986-4.133 2.093-4.302 8.463-.143 5.401.071 6.08 2.225 7.061 1.503.685 2.197 1.671 1.881 2.669-.394 1.242.364 1.633 3.52 1.816 4.594.266 8.287 1.917 7.422 3.317-.323.523-1.361.95-2.307.95s-2.382.964-3.191 2.143c-.809 1.178-2.475 3.26-3.702 4.625-1.227 1.366-2.031 2.809-1.785 3.206.246.398-.523 1.764-1.707 3.035-1.556 1.671-2.242 3.865-2.469 7.902-.219 3.901-.864 6.047-2.135 7.106-1.253 1.045-1.733 2.602-1.541 5 1.044 13.023 1.153 20.983.287 20.983-.973 0-.374 21.609.7 25.25.284.962.066 1.75-.484 1.75-1.522 0-2.38 3.74-1.301 5.668.728 1.3.406 2.142-1.346 3.52-1.267.997-2.801 1.812-3.409 1.812-.609 0-1.888.397-2.843.883-.955.486-2.861 1.403-4.236 2.038-4.308 1.99-7.155 10.154-6.979 20.012.108 6.052 1.08 7.291 7.229 9.212 2.063.644 3.75 1.55 3.75 2.013 0 .463 1.575.842 3.5.842s3.5.349 3.5.776c0 .428 1.912.84 4.25.916 2.338.077 9.425.596 15.75 1.154 14.831 1.308 46.541 1.433 50.841.2 1.83-.525 5.652-1.035 8.493-1.132 9.151-.314 26.509-4.937 28.91-7.699 1.814-2.088 3.191-12.828 1.758-13.714-.551-.34-1.002-1.423-1.002-2.405 0-.982-.875-2.578-1.944-3.545-1.069-.967-2.081-2.9-2.25-4.294-.205-1.696-1.441-3.141-3.733-4.365-1.912-1.021-4.013-3.222-4.75-4.976-1.623-3.86-1.626-3.977-.073-3.666 1.901.38 2.115-5.044.307-7.803-1.295-1.977-1.361-2.788-.356-4.397 1.041-1.668.864-2.471-1.148-5.192-1.632-2.207-2.507-4.962-2.787-8.771-.224-3.053-.763-6.01-1.199-6.569-.435-.56-1.087-2.256-1.448-3.768-.569-2.38-.352-2.754 1.612-2.782 2.903-.04 6.268-2.575 6.272-4.724.002-1.527-2.529-4.322-8.198-9.052-2.107-1.758-2.135-2.006-.7-6.172 1.128-3.275 1.206-4.519.317-5.068-.648-.401-.867-1.232-.487-1.847.381-.616-.012-1.389-.872-1.719-.891-.342-1.563-1.778-1.563-3.34 0-2.426-.767-3.77-5.021-8.796-.722-.853-.728-1.25-.018-1.25.571 0 1.039-.498 1.039-1.107s-.618-.87-1.373-.58c-1.126.432-1.19-.224-.354-3.643.561-2.293 1.443-4.713 1.96-5.376.516-.664.673-1.638.347-2.165-.326-.527-.118-1.116.462-1.31 2.011-.67 2.271-10.996.386-15.319-.959-2.2-1.867-5.014-2.018-6.254-.151-1.239-.98-2.959-1.842-3.821-.862-.862-1.568-2.418-1.568-3.457 0-1.04-.863-2.695-1.919-3.679-1.055-.984-2.225-3.01-2.599-4.503-.375-1.493-1.536-2.986-2.581-3.318-1.046-.331-1.901-1.499-1.901-2.594 0-1.096-.445-1.717-.989-1.381-.544.336-2.456-.024-4.25-.8a369.858 369.858 0 00-6.039-2.544c-1.528-.622-3.07-1.923-3.427-2.89-.941-2.549-2.336-3.201-5.498-2.568-2.344.468-2.797.223-2.797-1.516 0-1.142-.766-2.504-1.703-3.029-1.303-.729-1.438-1.271-.575-2.311 1.307-1.574 1.65-4.319 1.434-11.444-.127-4.142-.784-5.903-3.47-9.297-2.73-3.45-8.686-7.979-8.686-6.605 0 .204-1.238.038-2.75-.369-1.513-.407-3.65-.575-4.75-.373M107.5 119c.34.55.816 1 1.059 1s.441-.45.441-1-.477-1-1.059-1-.781.45-.441 1m38.059 12.095c.372.602-.276 2.384-1.441 3.96-1.165 1.575-2.118 3.782-2.118 4.905 0 1.6-.647 2.04-3 2.04-1.697 0-3-.531-3-1.223 0-.672-.592-.334-1.316.75-1.616 2.422-4.684 12.001-4.684 14.623 0 1.056-.702 2.991-1.559 4.3-1.105 1.685-1.718 5.979-2.104 14.715-.363 8.224-1.028 13.1-1.994 14.631-.882 1.398-1.33 4.124-1.146 6.973.301 4.641.336 4.684 4.573 5.517 2.349.462 4.081 1.149 3.85 1.527-.232.378 1.121.721 3.007.763 2.113.047 2.938-.235 2.151-.735-.746-.473.967-.817 4.112-.826 3.98-.011 5.732.443 6.7 1.735 1.183 1.579 1.252 1.52.714-.611-.562-2.23-.405-2.321 2.8-1.629 1.868.403 3.512 1.028 3.655 1.387.337.853 8.241.101 8.241-.784 0-.588 2.522-1.101 6.734-1.368.936-.059.957-.412.088-1.459-.63-.76-1.076-3.183-.989-5.384.09-2.298-.684-5.65-1.818-7.872-1.294-2.537-2.117-6.568-2.388-11.7-.452-8.539-2.403-17.586-3.63-16.828-.424.262-.71-.081-.636-.763.075-.681-.984-3.598-2.353-6.48-1.816-3.826-2.925-5.103-4.107-4.728-2.508.796-4.295-1.927-2.817-4.293 1.306-2.092.425-9.67-1.021-8.777-.46.284-1.07-.378-1.356-1.472-.286-1.094-1.263-1.989-2.172-1.989-.943 0-1.362.47-.976 1.095M99 141.059c0 .582.45.781 1 .441s1-.816 1-1.059-.45-.441-1-.441-1 .477-1 1.059m153.813 34.624c.721.289 1.584.253 1.916-.079.332-.332-.258-.568-1.312-.525-1.165.048-1.402.285-.604.604M173 215.378c0 .207.787.995 1.75 1.75 1.586 1.243 1.621 1.208.378-.378-1.307-1.666-2.128-2.195-2.128-1.372m-19 3.313c-2.612 1.204-3.056 1.72-1.75 2.035.963.231 1.75.838 1.75 1.347 0 2.404 2.824.582 3.213-2.073.242-1.65.406-2.982.364-2.961-.042.022-1.652.765-3.577 1.652m8.667-1.024c-.367.366-.667 1.116-.667 1.666 0 .55.296.704.658.342.362-.362 1.374-.099 2.25.584 1.373 1.071 1.422 1.022.351-.351-.683-.876-.946-1.888-.584-2.25.362-.362.208-.658-.342-.658s-1.3.3-1.666.667m5.672 1.333c.348 1.375.64 2.838.647 3.25.008.412.48.75 1.049.75.664 0 .603-.808-.169-2.25-.662-1.238-1.09-2.4-.952-2.583.139-.184-.076-.634-.478-1-.402-.367-.446.458-.097 1.833m10.956.511c-.949 1.031-.879 1.435.331 1.899 2.135.819 2.225.779 1.981-.881-.322-2.192-.969-2.477-2.312-1.018m-53.482.172c.721.289 1.584.253 1.916-.079.332-.332-.258-.568-1.312-.525-1.165.048-1.402.285-.604.604m16.614.746c-1.852 1.355-2.942 7.007-1.135 5.891.485-.3.669-1.361.408-2.358-.324-1.24-.039-1.645.905-1.283.758.29 1.663-.213 2.01-1.118.896-2.335.054-2.771-2.188-1.132m-13.769.246c-1.483 1.483-.476 3.193 2.491 4.227 4.085 1.424 4.338 1.39 2.86-.391-.68-.819-1.704-1.199-2.277-.845-.572.353-.751.174-.398-.398.747-1.208-1.695-3.574-2.676-2.593M105 221.893c0 .491.739 1.176 1.641 1.523 1.373.527 1.435.38.378-.893-1.44-1.735-2.019-1.916-2.019-.63m52.882.857c-.066.963-.042 2.159.052 2.658.095.5-.36 1.237-1.009 1.639-1.992 1.231-.064 3.098 2.038 1.973 1.568-.839 1.779-.654 1.428 1.247-.227 1.228-.145 1.668.183.977.328-.691 1.008-1.002 1.511-.691.503.311.908-.924.9-2.744-.012-2.524-.249-2.953-1-1.809-.819 1.246-1.133 1.27-1.862.139-.483-.748-.656-2.211-.384-3.25.272-1.039-.008-1.889-.622-1.889-.615 0-1.17.787-1.235 1.75M174.5 222c.34.55.816 1 1.059 1s.441-.45.441-1-.477-1-1.059-1-.781.45-.441 1m-51.5 1.378c0 .207.787.995 1.75 1.75 1.586 1.243 1.621 1.208.378-.378-1.307-1.666-2.128-2.195-2.128-1.372m23.56.72c.26.42-.014 1.065-.609 1.432-.732.453-.588 1.214.446 2.356.903.998 1.291 2.592.948 3.901-.481 1.841-1.273 2.208-4.712 2.181-4.343-.033-7.633-1.77-7.633-4.028 0-1.112-.213-1.115-1.25-.015-1 1.06-1 1.417 0 1.783 1.448.531 1.695 2.292.321 2.292-.51 0-1.635-.707-2.5-1.571-1.581-1.582-2.175-.792-.806 1.071 1.103 1.501 2.287 1.604 18.739 1.638 15.067.031 24.12-.721 24.955-2.072.24-.387-.854-.515-2.429-.284-2.373.349-2.941.018-3.311-1.931-.417-2.194-.456-2.172-.583.328-.13 2.564-.371 2.678-5.651 2.678-3.941 0-5.326-.336-4.853-1.178.443-.79.217-.766-.685.071-1.638 1.52-8.947 1.673-8.947.187 0-.584.787-.983 1.75-.885.963.098 2.425.113 3.25.033 1.198-.116 1.143-.354-.271-1.177-.974-.567-1.498-1.473-1.164-2.013.861-1.393-2.089-5.562-3.935-5.562-.848 0-1.329.344-1.07.765m19.146.225c-.36.938-.162 1.677.448 1.677.712 0 .652.528-.173 1.523-1.057 1.273-.995 1.42.378.893 1.798-.69 1.859-1.001.746-3.843-.676-1.724-.823-1.75-1.399-.25M102.5 225c-.34.55-.141 1 .441 1s1.059-.45 1.059-1-.198-1-.441-1-.719.45-1.059 1m79.5.774c0 1.16.373 2.339.829 2.621.983.607.855-3.045-.142-4.041-.378-.378-.687.261-.687 1.42M135.5 227c-.34.55-.141 1 .441 1s1.059-.45 1.059-1-.198-1-.441-1-.719.45-1.059 1m11.5.5c1.452 1.75 4 2 4 .393 0-.609-.675-.848-1.5-.531-.825.316-1.5.139-1.5-.393 0-.533-.505-.969-1.122-.969-.776 0-.738.464.122 1.5m-24 .441c0 .518.445 1.216.989 1.552.566.35.734-.051.393-.941-.665-1.732-1.382-2.049-1.382-.611m5.364.553c-.316.822-.976 1.246-1.469.941-.492-.304-.895-.125-.895.399s.774 1.249 1.72 1.612c.945.363 1.411.352 1.035-.025-.377-.376-.235-1.525.315-2.552.55-1.028.745-1.869.434-1.869-.312 0-.825.672-1.14 1.494m9.143.495c-.35.566.051.734.941.393 1.732-.665 2.049-1.382.611-1.382-.518 0-1.216.445-1.552.989m36.493-.58c0 .19.675.906 1.5 1.591.865.718 1.5.815 1.5.229 0-.558-.675-1.274-1.5-1.591-.825-.316-1.5-.419-1.5-.229m-59.884 1.688c-.064.879-1.129 2.086-2.366 2.683-2.441 1.177-3.335 1.056 12.75 1.723 3.508.146 5.169-.063 4-.502-1.1-.413-2.306-.575-2.681-.36-.374.216-.977-.088-1.339-.673-.452-.732-1.046-.743-1.896-.038-1.613 1.339-7.357-.751-7.934-2.887-.364-1.343-.433-1.336-.534.054M105 232c-2.35.753-2.302.807.809.9 1.972.06 3.059-.304 2.691-.9-.34-.55-.704-.955-.809-.9-.105.055-1.316.46-2.691.9m16 6.387c0 .212 1.326.581 2.947.819 1.621.237 2.72.064 2.441-.387-.495-.802-5.388-1.194-5.388-.432m17 .613c-1.282.828-1.246.972.25.985.963.008 1.75-.435 1.75-.985 0-1.22-.113-1.22-2 0m-8.25 2.662c.688.278 1.813.278 2.5 0 .688-.277.125-.504-1.25-.504s-1.937.227-1.25.504m12.53.074c2.629.207 6.679.204 9-.005 2.321-.21.17-.379-4.78-.376-4.95.003-6.849.175-4.22.381" fill="#1976D2" fill-rule="evenodd"/><path fill-opacity=".428" d="M115.108 19.872c-3.948 2.656-5.823 4.73-7 7.742-.884 2.263-2.091 4.738-2.681 5.5-1.367 1.765-1.587 5.669-.363 6.425 2.087 1.291.704 1.992-3.196 1.62-2.869-.274-3.92-.053-3.441.723.399.645.017 1.118-.903 1.118-1.266 0-1.381.398-.559 1.934 1.538 2.875 1.292 3.348-1.465 2.821-1.506-.288-2.5-.016-2.5.684C93 50.197 95.169 52 97.283 52c1.842 0 1.972 2.464.134 2.535-.505.02-1.817.523-2.917 1.119-1.1.595-3.644 1.379-5.653 1.742-2.01.362-3.916 1.341-4.236 2.174-.449 1.171-1.027 1.278-2.535.47-2.254-1.205-3.78.25-2.412 2.301.46.689.069.42-.868-.598-.938-1.019-2.288-1.749-3-1.624-.713.125-2.601-.404-4.196-1.175l-2.899-1.401 2.399-.587 2.4-.587-2.685-.534c-4.006-.795-5.657.578-3.525 2.933 2.148 2.373 2.289 8.796.21 9.594-.825.316-1.5.474-1.5.35s.444-1.773.986-3.665C68.451 59.939 66.232 57 60.911 57c-2.223 0-4.883-.45-5.911-1-1.027-.55-6.703-1.127-12.612-1.282-7.336-.193-10.872-.669-11.149-1.501-1.204-3.611-8.239.501-8.239 4.817 0 4.905 1.774 5.512 22 7.521.825.082 2.513.216 3.75.297 2.636.173 3.07 2.11.5 2.229-1.296.06-1.101.385.75 1.25 1.375.643 3.644 1.947 5.042 2.898 1.565 1.064 3.773 1.573 5.744 1.323 1.761-.222 4.442.188 5.958.912 5.682 2.714 33.711 6.074 37.777 4.528 3.915-1.489 6.261-1.21 8.479 1.008l2 2h-2.465c-3.103 0-4.447 2.498-3.766 6.997.483 3.181.379 3.371-1.143 2.107-.921-.764-1.963-1.1-2.317-.747-.353.354-.005.65.774.658 1.2.013 1.204.15.03.894-.762.483-1.604 3.15-1.871 5.928-.442 4.6-.23 5.275 2.386 7.58 1.58 1.392 3.772 2.803 4.872 3.136 5.301 1.606 8.392 3.564 7.851 4.974-.311.81-1.137 1.473-1.836 1.473-.698 0-1.826.67-2.506 1.489-.68.819-1.635 1.242-2.122.941-.488-.301-.887.154-.887 1.011 0 .857-.9 2.459-2 3.559s-1.888 2.249-1.75 2.553c.138.304-.848 1.694-2.189 3.088-1.855 1.926-2.197 2.919-1.429 4.137 1.471 2.333 3.856 2.937 3.023.766-.468-1.219-.072-1.884 1.341-2.253 1.102-.288 2.014-.809 2.026-1.158.012-.348.899-1.758 1.97-3.133l1.948-2.5-1.069 4c-1.748 6.536-5.608 9.363-8.642 6.329-.895-.895-1.104-.311-.884 2.479.223 2.83-.254 4.122-2.121 5.745-1.325 1.152-2.216 2.289-1.979 2.525.973.973 6.717-1.882 7.265-3.61.326-1.026 1.421-2.129 2.433-2.45 1.013-.321 2.092-1.543 2.398-2.716.413-1.578.895-1.866 1.858-1.111 2.015 1.58 5.731 2.232 6.415 1.125.693-1.122 7.236-.174 9.033 1.31.63.521.896 1.943.591 3.161-.626 2.492-4.175 7.464-4.353 6.098-.437-3.35-1.861-6.626-3.312-7.62-1.599-1.094-6.573-.917-6.573.235 0 .55-.723 1-1.607 1-1.055 0-1.398.544-1 1.582.334.87.607 1.77.607 2 0 .23.661.418 1.469.418.894 0 1.243.586.893 1.5-.317.825-.078 1.5.531 1.5s1.107.664 1.107 1.475c0 1.108.752 1.325 3.018.871 2.508-.501 2.912-.328 2.393 1.025-.344.896-1.139 1.681-1.768 1.744-2.157.217-5.144-.311-6.143-1.086-.55-.427-3.138-1.086-5.75-1.464-4.995-.723-5.913-1.788-3-3.485.962-.561 1.277-1.033.7-1.05-.578-.016-1.531.451-2.119 1.039-.588.588-1.916 1.194-2.95 1.346-2.96.434-2.482 4.828.619 5.69 2.421.674 2.355 1.008-.25 1.271-.827.083-1.265 1.986-1.294 5.625-.025 3.024-.362 6.849-.749 8.499-1.861 7.921-1.507 12.954.88 12.51.475-.088 1.048.395 1.274 1.074.263.788-.176 1.009-1.213.611-1.391-.534-1.594.161-1.416 4.841.115 3.005.592 5.464 1.061 5.464s-.071 1.173-1.198 2.607c-1.606 2.041-1.824 3.032-1.004 4.564 1.287 2.403-.242 4.548-4.591 6.443-2.318 1.01-2.545 1.324-1 1.379 1.908.067 1.917.134.192 1.441-1.63 1.237-1.434 1.366 2 1.319 2.952-.041 4.651-.851 7.558-3.606 3.37-3.192 3.75-3.338 3.75-1.433 0 1.166.454 2.271 1.01 2.456.555.185.058.931-1.105 1.657s-1.816.837-1.451.247c1.342-2.171-1.164-.986-4.209 1.991-2.461 2.406-3.523 2.857-4.94 2.099-3.454-1.847-8.968-1.137-11.212 1.444-2.368 2.723-2.686 4.385-.843 4.407.872.011.817.289-.18.92-.786.498-1.533 1.61-1.659 2.472-.188 1.276.146 1.365 1.8.48 1.478-.791 1.844-.785 1.346.021-.377.609-.013 1.779.808 2.6 1.978 1.978 2.699 1.886 2.009-.258-.452-1.405-.363-1.468.452-.32.558.786 1.764 1.539 2.68 1.674 1.539.226 1.536.1-.035-1.636-1.643-1.815-1.569-1.858 2.164-1.258 2.126.341 5.44 1.494 7.365 2.562l3.5 1.942-4.25-4.067c-2.337-2.237-4.25-4.213-4.25-4.393 0-.179.9-.325 2-.325s2 .428 2 .952.289.663.643.31c.894-.894-1.667-3.794-2.756-3.121-.488.301-.887.041-.887-.578 0-.62.787-.882 1.75-.582.963.299 2.425.112 3.25-.418 1.089-.698 1.141-.966.191-.977-.72-.008-1.012-.495-.65-1.082.363-.586.91-.815 1.217-.508.307.307 1.142.073 1.856-.52 1.588-1.318 3.691-.221 2.71 1.414-.453.756-.131.713.895-.118 1.024-.829 1.827-.935 2.224-.293.743 1.201 3.557.306 3.557-1.132 0-.555-.85-.787-1.889-.515-1.039.272-2.502.112-3.25-.354-.971-.604-.429-1.035 1.889-1.502 1.787-.36 3.25-1.049 3.25-1.53 0-1.537 3.228-.938 4.714.875.789.963 1.113 1.129.721.37-.476-.92-.251-1.217.676-.892.764.268 1.327 1.226 1.25 2.13-.076.903.29 1.642.813 1.642.523 0 .811-.971.639-2.157-.172-1.186.312-2.37 1.076-2.63.845-.287 1.116-.03.691.657-1.191 1.928.779 1.237 3.92-1.374 1.65-1.371 2.207-2.219 1.237-1.883-.969.336-2.475.019-3.347-.704-1.432-1.189-1.407-1.384.263-2.042 1.365-.537.984-.745-1.462-.797-2.152-.045-3.07-.457-2.625-1.177.462-.747-.089-.908-1.691-.495l-2.375.613 2.285-1.174c1.909-.981 2.195-1.74 1.738-4.617-.378-2.377.036-4.416 1.337-6.582 1.448-2.411 1.851-4.876 1.738-10.638-.192-9.735 1.084-17.991 3.128-20.249 1.136-1.256 1.31-2.115.577-2.848-.734-.734-.505-2.179.758-4.794.995-2.059 2.108-4.933 2.472-6.385.971-3.867 2.853-5.123 5.53-3.69 1.707.913 2.364.893 2.972-.09.429-.694.581-1.782.337-2.416-.243-.635.473-1.983 1.593-2.996 1.171-1.06 2.035-3.095 2.035-4.794 0-2.281.36-2.814 1.582-2.345.87.334 1.77.607 2 .607.23 0 .418.675.418 1.5s.401 1.5.892 1.5c1.839 0 3.219 7.521 1.883 10.263-.507 1.041-.445 2.475.152 3.5.567.972 1.026 1.187 1.043.487.061-2.515 2.823-1.159 4.073 2 .708 1.787 1.806 3.925 2.441 4.75 2.767 3.594 4.729 11.07 5.248 20 .375 6.464 1.145 10.613 2.408 12.982 1.021 1.915 2.128 4.932 2.461 6.705.594 3.167.709 3.228 6.672 3.518 3.636.177 6.229.781 6.469 1.508.599 1.817-4.26 2.653-8.768 1.508-3.653-.927-5.357-.194-2.974 1.279 1.664 1.029 1.129 2.512-1.25 3.469-1.238.497-1.687.933-1 .968.688.034 1.25.765 1.25 1.622 0 .857.457 1.276 1.016.931.559-.346.788-.998.508-1.451-.279-.452 1.063-1.006 2.984-1.23 4.109-.479 4.219-.271 1.242 2.357l-2.25 1.986 2.307-.497c2.008-.433 2.138-.292 1 1.086-1.097 1.329-1.066 1.505.193 1.093.825-.27 1.644-1.468 1.82-2.662.422-2.871 4.125-2.885 6.574-.025 1.8 2.103 1.795 2.136-.277 1.594-1.163-.304-2.367-.145-2.675.353-.308.498-.095.906.474.906.674 0 .722.823.136 2.363-.669 1.76-.471 2.796.775 4.061 1.529 1.552 1.536 1.8.073 2.888-1.098.816-1.356 1.818-.821 3.189.721 1.846.786 1.818.851-.373.056-1.887.349-2.141 1.433-1.241 1.101.913 1.308.625 1.076-1.493-.362-3.295.469-5.569 1.747-4.779.537.332.706 1.679.376 2.994-.428 1.704-.18 2.391.86 2.391.803 0 1.757-.481 2.12-1.068.363-.588 1.275-.832 2.027-.544.752.289 1.635.091 1.962-.439.998-1.614-2.44-2.264-4.294-.811-1.571 1.232-1.606 1.195-.365-.388.899-1.145.985-1.75.25-1.75-.617 0-1.122-.727-1.122-1.617 0-1.168-.667-1.489-2.409-1.156-1.661.318-2.258.068-1.922-.806.43-1.121 3.449-2.9 3.724-2.195.918 2.351 2.68 4.345 4.083 4.62 1.078.212 1.498-.078 1.083-.75-.372-.603-.186-1.096.413-1.096.6 0 1.355.688 1.678 1.529.507 1.323.773 1.289 1.966-.25 1.297-1.673 1.529-1.611 3.882 1.027 3.009 3.374 3.565 6.762.752 4.584-1.667-1.291-1.667-1.257 0 .706 1.804 2.125 2.362 3.9.952 3.029-.439-.271-1.451-.073-2.25.441-1.252.805-1.256 1.06-.029 1.85.95.611 2.187.362 3.719-.75 2.312-1.678 3.352-3.898 1.203-2.571-.718.445-.882.275-.434-.45.611-.989-.541-4.19-4.37-12.145-.397-.825-2.368-2.291-4.381-3.258-2.729-1.31-3.66-2.377-3.66-4.191 0-1.338-.483-2.732-1.073-3.096-.674-.417-.317-1.194.958-2.087 2.043-1.431 2.023-2.592-.126-7.084-.784-1.637-.729-2.616.211-3.748 1.057-1.274.805-2.143-1.507-5.173-2.086-2.736-2.829-4.912-2.984-8.752-.113-2.811-.718-6.378-1.343-7.926S187 160.991 187 159.916c0-1.585.472-1.836 2.5-1.327 1.54.387 2.5.202 2.5-.481 0-.609.675-1.108 1.5-1.108s1.5-.753 1.5-1.674c0-1.378-.471-1.245-2.66.75-1.811 1.65-2.474 1.903-2.076.79.41-1.146-.437-2.183-2.84-3.477-3.556-1.915-4.018-2.902-2.489-5.319.748-1.181 1.571-.95 4.735 1.328 3.475 2.501 3.392 2.342-.897-1.713-4.669-4.413-4.709-4.505-3.251-7.429 1.182-2.37 1.25-3.638.341-6.358-.625-1.869-1.525-3.826-1.999-4.348-.475-.523-.864-2.011-.864-3.309 0-1.297-1.405-4.106-3.122-6.243-2.694-3.353-3.027-4.389-2.431-7.565.379-2.023 1.046-4.411 1.48-5.306 1.328-2.731 4.073-11.799 4.073-13.452 0-2.48-1.576-2.794-4.132-.821-1.303 1.004-3.741 1.817-5.419 1.804-1.679-.012-3.587.31-4.242.714-.655.405-1.982.276-2.949-.287-1.622-.945-1.603-1.028.242-1.077 1.1-.029 3.125-.932 4.5-2.008s3.025-1.966 3.667-1.978c.641-.012 1.424-.585 1.738-1.272.314-.687.293.316-.047 2.23-.557 3.135-.456 3.346 1.012 2.128.896-.744 1.63-1.999 1.63-2.789 0-.791.45-1.159 1-.819 1.407.869 1.298.335-1.368-6.727-2.925-7.746-5.993-13.27-9.752-17.558-1.584-1.806-2.88-3.671-2.88-4.143 0-2.943-8.282-1.868-9.867 1.282-.979 1.945-1.025 1.889-.498-.604.445-2.101.202-2.75-1.027-2.75-1.738 0-2.221-1.621-.646-2.167.53-.183-.362-1.847-1.981-3.697-1.718-1.963-3.536-3.137-4.365-2.819-.782.3-2.253-.084-3.269-.854s-1.44-1.414-.942-1.431c.498-.018.145-.872-.784-1.898-1.451-1.603-1.534-2.557-.587-6.75 1.316-5.828.522-12.418-1.83-15.2-.937-1.108-2.154-2.752-2.704-3.653-.656-1.074-2.979-1.84-6.75-2.224-3.162-.323-5.75-.899-5.75-1.28 0-.382-.675-.694-1.5-.694s-1.507.488-1.515 1.084c-.011.738-.25.724-.75-.045-.497-.763-2.482.047-6.127 2.5m.045 6.375c-1.565 1.565-1.451 2.753.264 2.753.779 0 1.596.539 1.816 1.198.305.915 1.149.886 3.583-.122 3.618-1.498 4.192-3.076 1.118-3.076-1.136 0-2.867-.429-3.847-.953-1.194-.639-2.16-.574-2.934.2M127 27.816c0 1.022 4.109 2.408 4.873 1.644.636-.636.002-1.096-2.623-1.903-1.241-.382-2.25-.265-2.25.259M109 37c0 .55 1.013.993 2.25.985 1.819-.013 1.963-.201.75-.985-1.939-1.253-3-1.253-3 0m-.75 6.662c-1.43.577-1.699 2.338-.357 2.338.491 0 1.152-.675 1.469-1.5.316-.825.477-1.464.357-1.421-.121.043-.781.306-1.469.583M118.71 47c.328 1.252.031 2-.793 2-1.024 0-1.05.267-.117 1.2 1.679 1.679 3.279-.183 2.551-2.967-.322-1.228-.94-2.233-1.374-2.233-.434 0-.554.9-.267 2m6.79-1c-.34.55-.141 1 .441 1S127 46.55 127 46s-.198-1-.441-1-.719.45-1.059 1M101 47.882c0 .55.45 1.278 1 1.618.55.34 1 .168 1-.382s-.45-1.278-1-1.618c-.55-.34-1-.168-1 .382m34.762.191c-.955.557-2.238 1.949-2.851 3.093-1.105 2.065-1.095 2.066 1.446.207 1.407-1.03 2.788-2.435 3.069-3.123.605-1.479.576-1.482-1.664-.177m-28.252 1.943c.346.559 1.047.758 1.559.441 1.387-.857 1.129-1.457-.628-1.457-.857 0-1.276.457-.931 1.016m37.757 5.234c-1.703 2.176-2.011 5.265-.653 6.534 1.87 1.747 4.072-2.252 2.369-4.304-.635-.766-.865-1.862-.51-2.436.905-1.464-.023-1.306-1.206.206m-11.478 1.901c-.85.54-.352.824 1.461.834 1.512.008 2.75-.36 2.75-.818 0-1.068-2.537-1.077-4.211-.016m-47.07 5.599c.595 1.588.481 1.611-1.224.25-1.67-1.333-1.785-1.333-1.035 0 .464.825 1.495 2.259 2.29 3.187.795.928 1.179 2.118.854 2.645-.326.527.057 1.208.851 1.512.916.352 1.258.072.937-.766-.279-.726.21-2.037 1.086-2.913 1.458-1.458 1.42-1.767-.442-3.629-2.498-2.498-4.201-2.645-3.317-.286m48.615.677c.301.785-.101 1.965-.893 2.622-1.585 1.316-1.919 2.951-.602 2.951.872 0 3.161-4.379 3.161-6.047 0-.524-.498-.953-1.107-.953s-.861.642-.559 1.427m15.333-.76c-1.309 1.308-.634 2.137 1.322 1.626 1.094-.286 1.742-.919 1.441-1.407-.65-1.051-1.837-1.146-2.763-.219M74.5 65c.34.55.816 1 1.059 1s.441-.45.441-1-.477-1-1.059-1-.781.45-.441 1m68.043.931c-.683 1.105.894 2.299 1.818 1.375.95-.951.773-2.306-.302-2.306-.518 0-1.2.419-1.516.931m14.577.569c-.152 3.283 1.027 6.5 2.382 6.5.697 0 2.005-1.125 2.906-2.5 1.434-2.189 1.448-2.5.115-2.5-.838 0-1.523.45-1.523 1 0 1.997-1.64.934-2.701-1.75-.873-2.21-1.104-2.357-1.179-.75M74 68c0 .55.45 1 1 1s1-.45 1-1-.45-1-1-1-1 .45-1 1m57.573 3.895c-1.653.648-1.7.842-.333 1.367.924.355 1.826.008 2.146-.825.303-.79.453-1.405.333-1.367-.121.039-1.086.41-2.146.825M172 85.622c0 2.17.249 2.416 1.441 1.427.792-.657 1.194-1.837.893-2.622-.902-2.349-2.334-1.615-2.334 1.195m-14-.883c0 .617-.918 1.266-2.04 1.441-2.392.375-3.146 2.272-.96 2.416 4.593.303 5.075.474 4.405 1.559-.443.715-.275.883.44.44.635-.392 1.141-1.249 1.123-1.904-.041-1.539-2.968-5.436-2.968-3.952m-29 5.037c0 .427 1.8.605 4 .395 2.2-.209 4-.559 4-.776 0-.217-1.8-.395-4-.395s-4 .349-4 .776m20 .878c0 .53.602 1.788 1.339 2.795 1.074 1.469 1.717 1.611 3.25.721 1.278-.742 1.44-1.119.49-1.14-.782-.016-2.244-.775-3.25-1.685-1.006-.91-1.829-1.221-1.829-.691M108 94.5c0 .825.436 1.5.969 1.5.532 0 .709-.675.393-1.5-.317-.825-.753-1.5-.969-1.5-.216 0-.393.675-.393 1.5m18-1.107c0 .949 2.993 1.427 3.527.563.325-.526-.336-.956-1.468-.956s-2.059.177-2.059.393m14.07.298c.039.445.457 1.709.93 2.809.829 1.928.862 1.921.93-.191.038-1.205-.38-2.469-.93-2.809-.55-.34-.968-.254-.93.191M122.5 99c-.34.55.11 1 1 1s1.34-.45 1-1c-.34-.55-.79-1-1-1-.21 0-.66.45-1 1m52.5.059c0 .582.45.781 1 .441s1-.816 1-1.059-.45-.441-1-.441-1 .477-1 1.059m-3.722 3.858c.092.32-1.338 2.066-3.177 3.878-3.436 3.384-3.67 5.213-.426 3.327 1.004-.584 1.387-1.075.852-1.092-.534-.016.025-.728 1.243-1.581 2.983-2.09 4.599-5.116 2.732-5.116-.765 0-1.316.263-1.224.584m-29.086 7.829c.412 2.123 2.423 2.701 3.116.895.341-.89-.21-1.644-1.435-1.964-1.437-.376-1.904-.079-1.681 1.069m-21.628.547c.376.986.935 1.541 1.243 1.233.308-.307.001-1.114-.683-1.793-.988-.98-1.102-.865-.56.56M131 113.5c1.375.786 2.95 1.429 3.5 1.429.55 0-.125-.643-1.5-1.429s-2.95-1.429-3.5-1.429c-.55 0 .125.643 1.5 1.429m29.08.5c1.458 3.061 1.92 3.628 1.92 2.358 0-.537-.7-1.849-1.555-2.917-1.467-1.83-1.487-1.798-.365.559m6.587-1.333c-1.192 1.192-.714 1.991 1.908 3.185 3.028 1.38 4.425.776 4.425-1.911 0-1.465-.695-1.941-2.833-1.941-1.559 0-3.134.3-3.5.667m-17.513 3.771c.191.917.796 1.644 1.346 1.615 1.484-.079 1.212-2.316-.346-2.835-.841-.28-1.215.177-1 1.22m15.288 2.656c-.372.602-1.735.892-3.029.645-1.294-.248-2.115-.065-1.824.405.291.471 1.14.856 1.887.856.746 0 1.515.474 1.708 1.053.193.579 2.028 1.431 4.077 1.893 4.467 1.007 4.034-.476-.56-1.922-2.831-.89-2.883-.966-.451-.654 3.001.385 3.891-1.718 1.168-2.763-2.091-.802-2.189-.786-2.976.487m-42.001 2.488c-1.776 1.447-1.785 1.532-.109 1 1.007-.32 2.245-.582 2.75-.582.505 0 .918-.45.918-1 0-1.448-1.336-1.23-3.559.582m36.337 2.552c1.253.658 2.102 1.685 1.885 2.281-.671 1.852 1.136 4.269 4.811 6.437 2.668 1.575 3.526 1.744 3.526.696 0-.761.254-2.045.564-2.853.594-1.549-4.094-5.511-7.293-6.162a48.224 48.224 0 01-3.771-.978c-1.508-.465-1.44-.323.278.579m-41.763 1.916c-.008 1.403-.555 3.09-1.215 3.75-.821.821-.85 1.2-.094 1.2.635 0 .885.959.586 2.25l-.52 2.25 1.704-2.298c1.344-1.811 2-2.052 3.101-1.138.798.662 2.154.832 3.16.397.97-.419 3.292-.85 5.16-.956 3.072-.175 3.221-.065 1.559 1.151-1.011.739-1.486 1.344-1.055 1.344.431 0 1.928-.9 3.326-2l2.543-2h-6.553c-3.605 0-7.345-.304-8.312-.675-1.631-.626-1.619-.727.168-1.393 1.883-.701 1.881-.735-.073-1.502-1.1-.431-2.331-1.267-2.735-1.857-.404-.59-.741.074-.75 1.477m31.985-.672c0 .207.787.995 1.75 1.75 1.586 1.243 1.621 1.208.378-.378-1.307-1.666-2.128-2.195-2.128-1.372m4.446 2.709c-.369.598-.194 1.565.39 2.149.749.749 1.014.429.9-1.087-.184-2.446-.35-2.583-1.29-1.062m11.248.552c-.926.926.189 2.361 1.834 2.361.842 0 1.178-.604.834-1.5-.611-1.591-1.614-1.914-2.668-.861m8.871 3.256c-.305.493.096 1.145.89 1.449.963.37 1.258.072.887-.895-.645-1.68-1.011-1.794-1.777-.554M177 134.5c-1.72.983-1.992 1.44-.872 1.465.895.019 2.187-.64 2.872-1.465 1.523-1.835 1.209-1.835-2 0m-5 1.5c0 .55.45 1 1 1s1-.45 1-1-.45-1-1-1-1 .45-1 1m-45.756 1.664c-1.576.636-.618 2.336 1.315 2.336.793 0 1.441-.675 1.441-1.5 0-1.542-.573-1.716-2.756-.836m-5.431 5.019c.721.289 1.584.253 1.916-.079.332-.332-.258-.568-1.312-.525-1.165.048-1.402.285-.604.604m58.139 3.406c-.957 1.79-.856 2.039.704 1.739 1.001-.193 1.972-1.133 2.156-2.089.466-2.421-1.506-2.179-2.86.35M177 152c0 .55.702 1 1.559 1s1.281-.45.941-1c-.34-.55-1.041-1-1.559-1s-.941.45-.941 1m-71 2.559c0 .857.45 1.281 1 .941.55-.34 1-1.041 1-1.559s-.45-.941-1-.941-1 .702-1 1.559m1.243 5.191c-1.817 2.327-2.307 2.519-3.18 1.25-.798-1.159-1.036-.691-1.048 2.062-.012 2.797.621 4.032 2.945 5.75 3.325 2.459 4.539 2.796 3.374.938-1.347-2.148-1.478-5.872-.258-7.342 1.544-1.86 5.357-1.796 6.945.117 1.134 1.367 1.441 1.367 2.951 0 .927-.839 2.164-1.525 2.75-1.525.585 0 1.342-.725 1.682-1.611.439-1.142.188-1.446-.861-1.044-.813.312-1.746.136-2.072-.391-.377-.611-1.25-.607-2.404.01-1.168.625-3.009.626-5.183.003-1.854-.532-3.398-.967-3.432-.967-.034 0-1.028 1.238-2.209 2.75M112 170c-.793.49-1.11 1.223-.704 1.629.405.406 1.262.213 1.904-.429.642-.642.959-1.375.704-1.629-.254-.254-1.111-.061-1.904.429m7-.16c0 .462-1.8 1.434-4 2.16-3.645 1.203-5.442 3-3 3 .55 0 1 .675 1 1.5s.487 1.5 1.083 1.5c1.44 0 .58 2.465-.916 2.625-.642.069-1.492.181-1.89.25-.397.069.278.826 1.5 1.682 1.223.856 2.223 2.013 2.223 2.571 0 .558.626 1.641 1.391 2.406 1.187 1.187 1.453 1.062 1.82-.86.541-2.828-.099-4.862-1.296-4.121-.503.311-1.399.266-1.99-.099-.688-.426-.265-1.527 1.174-3.059 1.237-1.317 1.721-2.395 1.075-2.395-2.152 0-1.21-3.396 1.576-5.676 1.513-1.239 2.188-2.268 1.5-2.288-.687-.02-1.25.342-1.25.804M103.509 175c1.037 3.622 2.391 4.779 3.501 2.992.619-.998.522-1.613-.292-1.857-.67-.201-1.827-1.101-2.571-2-1.192-1.44-1.268-1.337-.638.865m71.741-.338c-2.185.882-1.352 2.096 1.75 2.551 2.399.352 3 .075 3-1.386 0-1.779-2.007-2.272-4.75-1.165m-71.501 11.804c.284 1.488.023 2.534-.632 2.534-.615 0-1.117.666-1.117 1.48 0 2.13 10.201 7.805 11.198 6.229.427-.676.154-1.667-.619-2.248-.761-.571-2.228-2.55-3.26-4.397-1.031-1.847-2.816-3.982-3.965-4.745-1.957-1.299-2.059-1.227-1.605 1.147m74.401.484c.43 1.289 1.801 1.521 1.925.325.041-.399-.465-.905-1.125-1.125-.66-.22-1.02.14-.8.8m-8.007.957c-1.006.625-1.053 1.03-.183 1.568 1.372.848 2.402.097 1.894-1.38-.208-.606-.914-.683-1.711-.188M173 189.5c0 .825.402 1.5.893 1.5s1.152-.675 1.469-1.5c.35-.914.001-1.5-.893-1.5-.808 0-1.469.675-1.469 1.5m-57.78 6.94c-1.254 1.322-1.929 2.606-1.5 2.852.429.247 1.827-.843 3.106-2.422 2.814-3.472 1.589-3.8-1.606-.43m5.405-.642c-.271.439-.093 1.445.397 2.237.671 1.086.848.889.721-.798-.183-2.427-.364-2.66-1.118-1.439M102 196.866c0 .595 1.328 1.769 2.95 2.608 1.623.839 3.357 2.252 3.854 3.14 1.039 1.858 5.565.994 4.921-.94-.874-2.62-11.725-7.07-11.725-4.808m14 5.193c0 .582.45.781 1 .441s1-.816 1-1.059-.45-.441-1-.441-1 .477-1 1.059m-11.187.624c.721.289 1.584.253 1.916-.079.332-.332-.258-.568-1.312-.525-1.165.048-1.402.285-.604.604M188 203c0 .55.423 1 .941 1s1.219-.45 1.559-1c.34-.55-.084-1-.941-1s-1.559.45-1.559 1m-25.75 3.263c-1.787 1.057-3.243 2.442-3.235 3.079.009.65.441.5.985-.342.826-1.278.972-1.238.985.271.008.975 1.126 2.278 2.484 2.897 1.357.618 2.184 1.585 1.836 2.148-.406.656.055.742 1.281.24a43.866 43.866 0 013.664-1.286c2.613-.751 2.111-2.27-.75-2.27-1.375 0-2.5-.45-2.5-1s-.975-1-2.167-1c-2.643 0-1.942-.901 1.167-1.5 2.787-.537 3.911-1.5 1.75-1.5-.871 0-1.733-.373-1.917-.829-.183-.456-1.796.035-3.583 1.092m-64.947.529c-.659.418-.876 1.28-.484 1.915.507.82 1.433.602 3.197-.754 2.276-1.749 2.316-1.909.484-1.915-1.1-.004-2.539.335-3.197.754m84.51.891c.721.289 1.584.253 1.916-.079.332-.332-.258-.568-1.312-.525-1.165.048-1.402.285-.604.604M195 208.91c-2.413.686-2.383.734.875 1.4 5.579 1.141 6.823.929 4.566-.778-2.155-1.631-1.968-1.609-5.441-.622M153 211c0 .55.637 1 1.417 1 .779 0 1.643.563 1.921 1.25.318.789.533.645.583-.393.043-.904-.633-1.916-1.503-2.25-2.134-.819-2.418-.773-2.418.393m-9.5 1c-.34.55.11 1 1 1s1.34-.45 1-1c-.34-.55-.79-1-1-1-.21 0-.66.45-1 1m34.513-.029c-1.179.745-1.037.907.68.777 1.193-.09 1.948-.52 1.679-.956-.599-.969-.537-.973-2.359.179m-95.141 2.779c-1.243 1.586-1.208 1.621.378.378 1.666-1.307 2.195-2.128 1.372-2.128-.207 0-.995.787-1.75 1.75M89 216c1.996 1.29 7.297 1.29 6.5 0-.34-.55-2.279-.993-4.309-.985-2.751.012-3.309.262-2.191.985m82.607 1.582c-.893 2.327-.739 5.418.271 5.418.482 0 1.495-.787 2.25-1.75 1.269-1.618 1.228-1.637-.547-.25-1.824 1.426-1.887 1.34-1.275-1.75.682-3.441.316-4.313-.699-1.668m-60.735.668c.755.963 1.768 1.75 2.25 1.75.483 0 .842-.787.799-1.75-.05-1.113-.268-1.28-.597-.458-.424 1.055-.821 1.055-2.171 0-1.477-1.154-1.507-1.106-.281.458M144.5 218c.34.55.816 1 1.059 1s.441-.45.441-1-.477-1-1.059-1-.781.45-.441 1m32.136 1.506c-.315.822-.164 1.494.336 1.494 1.356 0 2.198-1.777 1.149-2.425-.501-.31-1.169.109-1.485.931M103 220.941c0 .518.445 1.216.989 1.552.566.35.734-.051.393-.941-.665-1.732-1.382-2.049-1.382-.611M149 222c0 .55.477 1 1.059 1s.781-.45.441-1-.816-1-1.059-1-.441.45-.441 1m29.25.689c2.038.533 2.3 1.922.5 2.649-.687.277-.238.54 1 .583 1.297.046 2.144-.451 2-1.171-.33-1.651-1.894-2.743-3.75-2.619-1.063.072-.99.234.25.558m-43.568 1.924c.604 1.575 1.934 1.817 2.748.501.301-.488-.314-1.112-1.366-1.387-1.34-.351-1.755-.085-1.382.886M167.5 224c.34.55.816 1 1.059 1s.441-.45.441-1-.477-1-1.059-1-.781.45-.441 1m6.5-.191c0 .445.7 1.682 1.555 2.75 1.512 1.887 1.527 1.882.535-.178-.561-1.165-.735-2.402-.388-2.75.347-.347.106-.631-.535-.631-.642 0-1.167.364-1.167.809m14.628.399c.686 1.108 3.372.993 3.372-.146 0-.516-.869-.872-1.931-.792-1.062.08-1.71.502-1.441.938m-81.756 1.131c.967 1.17 1.023 1.661.191 1.661-.649 0-.915.43-.59.956.616.997 3.527.318 3.527-.822 0-.359-1.013-1.283-2.25-2.054-2.059-1.283-2.134-1.261-.878.259m13.128-.367c0 1.356 1.777 2.198 2.425 1.149.31-.501-.109-1.169-.931-1.485-.822-.315-1.494-.164-1.494.336m-3 1.287c0 .693.922 1.836 2.048 2.539 2.001 1.249 2.01 1.22.385-1.259-1.856-2.834-2.433-3.137-2.433-1.28m12.564.034c.376.986.935 1.541 1.243 1.233.308-.307.001-1.114-.683-1.793-.988-.98-1.102-.865-.56.56m12.343.319c-.726.874-1.423 2.332-1.55 3.239-.187 1.342.037 1.287 1.206-.292.79-1.067 1.935-2.249 2.544-2.625.709-.438.75-.904.113-1.298-.546-.338-1.587.101-2.313.976m64.459-.324c-.624.667-2.51 2.31-4.191 3.653-3.423 2.732-3.278 4.059.443 4.059 1.672 0 2.29.414 1.865 1.25-.35.688.299.188 1.441-1.111 1.229-1.397 2.076-3.744 2.076-5.75 0-3.769-.033-3.812-1.634-2.101m-68.891.753c-.354.572-1.505.767-2.559.432-1.114-.353-1.916-.136-1.916.519 0 .619.45.848 1 .508.55-.34 1-.141 1 .441 0 1.704 1.417 1.222 2.768-.941.687-1.1 1.047-2 .799-2-.247 0-.738.468-1.092 1.041m15.255 1.034c.277 1.059.901 1.925 1.387 1.925.485 0 .89.787.898 1.75.014 1.51.161 1.544 1.076.25.799-1.129 1.187-1.191 1.568-.25.279.688.947 1.25 1.483 1.25 1.682 0-.221-2.08-2.799-3.06-1.355-.515-2.214-1.34-1.909-1.833.305-.494-.067-1.136-.827-1.427-.966-.371-1.23.047-.877 1.395m-39.127-.242c-.283.459.12.834.897.834s1.18-.375.897-.834c-.283-.458-.687-.833-.897-.833-.21 0-.614.375-.897.833M126.5 228c.34.55.816 1 1.059 1s.441-.45.441-1-.477-1-1.059-1-.781.45-.441 1m70.5 0c0 .55.477 1 1.059 1s.781-.45.441-1-.816-1-1.059-1-.441.45-.441 1m-51.344 1.545c.304.794.956 1.195 1.449.89 1.24-.766 1.126-1.132-.554-1.777-.967-.371-1.265-.076-.895.887m-35.989.122c-.367.366-.667 1.131-.667 1.7 0 .626.466.567 1.183-.15.651-.651.951-1.416.667-1.7-.284-.285-.817-.217-1.183.15m61.544.871c-1.066 1.208-1.022 1.462.25 1.462.846 0 1.539-.675 1.539-1.5 0-1.824-.15-1.82-1.789.038M119.5 232c.34.55 1.068 1 1.618 1s.722-.45.382-1c-.34-.55-1.068-1-1.618-1s-.722.45-.382 1m-38.5.654c0 1.472 3.389 4.352 5.079 4.316.896-.02.682-.435-.579-1.125-1.1-.601-2.562-1.799-3.25-2.66-.687-.862-1.25-1.101-1.25-.531m7.678 5.424c1.414 1.414 8.426 2.976 9.734 2.168.562-.348-1.213-1.212-3.945-1.92-6.112-1.584-7.171-1.63-5.789-.248m10.888 2.816c-.304.491.457.879 1.691.861 1.233-.018 8.318.478 15.743 1.103 7.425.626 18.675 1.068 25 .983 10.631-.142 10.178-.21-6-.897-9.625-.409-21.02-1.239-25.322-1.844-9.466-1.331-10.406-1.349-11.112-.206m80.684-.188c-1.238.238-2.25.86-2.25 1.383 0 .522 1.012.714 2.25.426s4.05-.926 6.25-1.419l4-.895-4 .036c-2.2.019-5.012.23-6.25.469m-14.92 1.206c-3.943.323-7.516.935-7.938 1.36-.423.424 2.804.462 7.17.085s8.95-.659 10.188-.627c1.238.032 2.25-.344 2.25-.836s-1.012-.821-2.25-.732c-1.238.089-5.476.426-9.42.75" fill="#1976D2" fill-rule="evenodd"/><path fill-opacity=".161" d="M119.13 19.898c-1.585 1.004 2.946 2.766 9.094 3.537 2.048.257 4.608.94 5.689 1.519 1.081.578 2.175.712 2.431.298.667-1.078-4.113-6.817-4.966-5.963-.391.391-.186.711.455.711.642 0 1.167.49 1.167 1.088 0 1.257-7.913.26-9.45-1.191-1.187-1.121-2.649-1.12-4.42.001m-.672 5.169c-.317.513.752.933 2.376.933 1.871 0 3.194.631 3.613 1.722.555 1.448.802 1.493 1.55.284.526-.852.506-1.9-.05-2.57-1.149-1.384-6.693-1.657-7.489-.369M136 27.559c-1.375.75-3.2 2.223-4.056 3.273-2.137 2.624-5.97 3.745-7.016 2.051-.486-.786-.333-1.663.375-2.144.709-.482-.025-.696-1.803-.526-2.327.223-2.926.715-2.67 2.193.286 1.657-.083 1.559-2.827-.75-1.736-1.461-3.684-2.69-4.33-2.733-.645-.042-1.985-.23-2.978-.419-1.174-.223-2.128.504-2.726 2.076-.506 1.331-1.381 2.42-1.944 2.42-.564 0-1.025.52-1.025 1.155 0 .704.692.529 1.773-.449 1.213-1.098 2.239-1.31 3.25-.671 1.282.811 1.271.936-.084.95-.859.008-2.574.958-3.811 2.11-2.098 1.955-2.133 2.181-.523 3.358 1.621 1.186 1.61 1.33-.189 2.374-2.375 1.379-1.822 1.437 2.331.245 2.579-.739 3.414-.606 4.12.654.702 1.255 1.937 1.457 5.981.978 2.862-.339 5.355-.185 5.685.35.324.524 1.735.666 3.136.314 2.331-.585 2.452-.463 1.433 1.441-1.341 2.507-3.102 3.743-3.102 2.179 0-.677-.603-.528-1.5.369-.825.825-1.5 2.031-1.5 2.68 0 .798-.889.943-2.75.446-1.513-.404-3.2-.669-3.75-.589-7.58 1.099-9.653.407-8.78-2.931.844-3.229-1.185-2.218-2.491 1.241-1.113 2.948-1.314 3.062-2.515 1.419-1.094-1.495-1.869-1.624-4.76-.795-3.333.957-3.356.995-.634 1.082 2.331.074 2.764.479 2.5 2.34-.176 1.237-.882 2.306-1.57 2.375-3.437.344-3.477.625-.25 1.784 2.833 1.018 4.072 2.425 6.5 7.382 1.65 3.369 3.45 5.993 4 5.831.999-.294 1.154-.918 1.4-5.622.089-1.7.391-2.089.946-1.215.448.706.704 2.281.568 3.5a101.92 101.92 0 00-.331 3.465c-.114 1.708-3.177 1.573-5.785-.254-1.935-1.355-2.322-1.33-3.917.25-1.598 1.584-1.707 1.591-1.132.069.455-1.201-.282-2.227-2.571-3.578-3.974-2.344-5.676-1.867-5.684 1.596-.005 1.928-.859 3.152-3.081 4.417-3.296 1.876-10.462 2.447-9.413.75.34-.55.063-1-.615-1-.707 0-.305-.988.941-2.314 2.746-2.923 2.83-6.281.174-6.976-1.711-.447-2-.03-2 2.884 0 4.327-2.949 7.377-7.25 7.496-2.525.07-1.688.522 3.75 2.025 5.309 1.467 10.804 1.989 22.75 2.16 8.662.124 15.749.563 15.75.975 0 .412.675.75 1.5.75s1.5.724 1.5 1.608c0 1.238-.634 1.467-2.75.992l-2.75-.616 2.5 1.422c2.705 1.539 6.636 11.771 4.787 12.46-1.392.518-4.263-2.586-4.276-4.624-.006-.94-.707-1.845-1.558-2.01-1.827-.355-2.073 3.667-.358 5.865.602.772 1.345 2.112 1.651 2.978.507 1.433.268 1.433-2.656 0-2.573-1.261-3.122-2.053-2.756-3.974.282-1.484.064-2.156-.574-1.762-.566.35-1.231 2.011-1.478 3.692-.331 2.257-.1 2.921.885 2.543 1.595-.612 1.615-.446.347 2.889-.904 2.377-.74 2.642 1.976 3.185 3.267.653 4.664.314 4.217-1.026-.161-.483.627-.637 1.75-.343 1.326.346 2.043.051 2.043-.841 0-.816-.614-1.139-1.511-.795-1.08.414-1.336.121-.896-1.025.548-1.429.924-1.386 3.416.388 1.54 1.097 3.238 1.994 3.773 1.994 1.755 0 3.617 3.001 2.533 4.085-.666.666-1.426.486-2.28-.543-1.391-1.676-5.035-2.119-5.035-.612 0 .512 1.013 1.157 2.25 1.433s.504.391-1.63.255l-3.88-.247 2.241 1.815c2.538 2.055 4.676 2.344 5.222.704.229-.686.896-.476 1.748.551 1.204 1.45 1.107 1.731-.763 2.22-1.746.457-1.954.908-1.129 2.449 1.146 2.141 3.953 2.478 5.741.69.918-.918 1.2-.921 1.2-.013 0 .652-1.559 1.838-3.464 2.634-3.31 1.382-5.748 5.7-4.133 7.316.354.354 3.545.737 7.091.852 8.341.27 10.149 1.803 8.441 7.156-2.266 7.106-4.189 11.138-5.56 11.665-.756.29-1.375 1.216-1.375 2.059 0 .842-.675 1.531-1.5 1.531-1 0-1.5-1-1.5-3 0-3.457-2.855-4.271-3.696-1.054-.28 1.071-1.251 2.144-2.157 2.384-.906.241-.395.49 1.134.554 1.53.064 3.03.763 3.333 1.553a1.534 1.534 0 001.969.893c2.182-.838 1.685.901-1.123 3.93-1.398 1.507-2.128 2.74-1.623 2.74.505 0 1.483-.681 2.173-1.512 1.022-1.232 1.54-1.278 2.786-.25 1.337 1.101 1.387.99.395-.871-.956-1.794-.743-2.559 1.336-4.802 1.36-1.467 2.473-3.459 2.473-4.425 0-.967.606-2.587 1.347-3.6 1.15-1.573 1.808-1.682 4.5-.743 3.063 1.068 3.153 1.017 3.153-1.79 0-1.589.45-3.167 1-3.507 2.059-1.273.854-4.078-2.756-6.419-2.069-1.341-3.177-2.603-2.488-2.833 1.947-.649 1.463-2.851-1.006-4.574l-2.25-1.569 2.75-.053c1.512-.028 2.75-.277 2.75-.552 0-.883-3.967-4.5-4.935-4.5-.514 0-2.081-.436-3.481-.968-1.771-.673-2.357-1.46-1.926-2.584.341-.889.895-1.208 1.231-.709.336.499 1.376 1.189 2.31 1.533 1.212.447 1.54.211 1.143-.823-.371-.968.108-1.449 1.444-1.449 1.1 0 2.283.739 2.63 1.641.527 1.373.38 1.435-.893.378-1.258-1.044-1.523-.981-1.523.359 0 .892.482 1.622 1.071 1.622 1.344 0 3.929 2.528 3.929 3.842 0 .542 1.829 2.33 4.063 3.973 2.235 1.644 3.605 3.272 3.044 3.619-1.159.716-.36 3.566 1 3.566.491 0 .893-1.013.893-2.25-.001-1.985.472-2.233 4.025-2.101 2.215.082 4.802.749 5.751 1.483 1.589 1.229 1.587 1.173-.026-.728-2.3-2.71-2.221-3.727.189-2.436 2.964 1.586 3.413-.507.516-2.406-2.205-1.444-2.444-2.129-1.869-5.359.362-2.037.716-4.116.786-4.62.155-1.11 3.829-5.033 4.878-5.208a47.543 47.543 0 011.809-.25c.582-.069.751-.623.375-1.232-.453-.733-.014-.895 1.3-.478 1.266.402 2.487.01 3.375-1.084.769-.949.863-1.398.21-1.007-.649.39-1.468.244-1.819-.324-.351-.568-1.057-.774-1.569-.457-.512.316-.931-.153-.931-1.043 0-.89-.419-1.359-.931-1.043-1.777 1.099-1.968-1.142-.509-5.989 1.301-4.324 1.296-4.969-.047-5.721-.832-.465-1.499-1.612-1.481-2.547.029-1.576.128-1.573 1.36.05.731.963 1.954 1.733 2.718 1.712 2.041-.056 7.274-7.978 6.067-9.185-.638-.638-1.201-.276-1.619 1.039-.626 1.972-5.825 4.653-8.308 4.283-.687-.103-1.25.594-1.25 1.548 0 1.553-.154 1.532-1.468-.206-1.438-1.901-2.194-6.437-.849-5.091.376.376 1.276-.726 2-2.448 1.919-4.564 1.614-5.549-.778-2.509-4.158 5.286-13.966 8.495-15.305 5.007-1.011-2.635 1.677-6.934 4.169-6.666 1.318.141 2.597-.55 3.24-1.75.95-1.776.743-1.984-1.974-1.984-1.669 0-3.027-.338-3.017-.75.01-.412 1.321-3.112 2.913-6 1.991-3.613 2.477-5.25 1.555-5.25-.737 0-1.528-.788-1.758-1.75-.374-1.563-.498-1.536-1.16.25-.408 1.1-1.941 5.257-3.405 9.238-1.936 5.262-3.149 7.24-4.444 7.25-2.353.016-3.037-2.021-1.785-5.316 1.529-4.021.318-3.212-1.421.95-1.541 3.69-2.109 8.827-.748 6.766.404-.611 2.203-1.322 3.998-1.579 2.913-.416 3.194-.248 2.618 1.566-1.212 3.819-2.7 4.531-6.306 3.015-3.485-1.466-3.419-1.069-1.486-8.89.379-1.532.142-1.415-1.012.5-1.741 2.89-2.027 6.604-.577 7.5 1.587.981 1.16 2.779-.5 2.107l-3.011-1.218c-1.144-.463-1.342-.159-.813 1.25.614 1.636.496 1.696-.976.499-.921-.749-2.432-1.071-3.357-.716-.935.359-2.045.075-2.498-.638-1.322-2.085-.994-2.516 1.821-2.397 1.466.062 2.854-.449 3.083-1.137.23-.687-.295-1.25-1.166-1.25-2.172 0-2.013-2.971.167-3.118.963-.066 2.034-.083 2.381-.04 1.157.144 4.342-3.999 4.356-5.666.007-.904.844-1.805 1.86-2.002 1.496-.29 1.73.086 1.235 1.984-.336 1.288.842-.47 2.617-3.908 1.775-3.437 3.637-6.25 4.137-6.25.5 0 .43.577-.156 1.283-1.191 1.436-3.346 6.717-2.741 6.717.396 0 5.561-8.94 5.561-9.626 0-.206-.9-.374-2-.374-1.225 0-2.013-.678-2.033-1.75-.03-1.574-.207-1.549-1.764.25-3.409 3.94-5.588 4.964-2.66 1.25 1.626-2.062 3.407-3.764 3.957-3.782.55-.017.177-.655-.829-1.418-1.384-1.049-1.591-1.832-.852-3.218.98-1.838 1.498-5.291 1.292-8.608-.104-1.658-.313-1.671-3.178-.189-1.687.872-3.825 1.386-4.75 1.141-1.255-.331-1.142-.473.445-.56 1.17-.064 2.687-.791 3.372-1.616.685-.825 1.865-1.5 2.622-1.5 1.697 0 1.799-2.179.178-3.8-1.418-1.418-1.561-1.407-4.8.359m-25.333 2.108c-.367.366-.667 1.131-.667 1.7 0 .626.466.567 1.183-.15.651-.651.951-1.416.667-1.7-.284-.284-.817-.217-1.183.15M113 32.984c0 2.712-.265 2.988-2.364 2.461-1.829-.459-2.487-.124-2.907 1.482-.298 1.142-.173 1.847.279 1.568.452-.279 1.085.058 1.407.749.469 1.008.701 1.008 1.17 0 .322-.691 1.001-1 1.507-.687.507.313 1.223-.246 1.59-1.244.367-.997 1.264-2.173 1.993-2.613 1.883-1.136 1.642-2.46-.675-3.7-1.797-.962-2-.76-2 1.984m24.329 2.791c-.644.41-1.479 1.974-1.856 3.476-.798 3.178 1.573 4.786 4.04 2.738 1.992-1.653 1.892-3.082-.161-2.294-1.341.515-1.553.136-1.139-2.031.281-1.465.46-2.657.398-2.649-.061.009-.638.351-1.282.76M120.5 40c.74 1.198 5.213 1.198 8 0 1.465-.63.58-.878-3.309-.93-3.301-.043-5.075.308-4.691.93m9.486 3.25c-.007 1.237-.237 3.375-.51 4.75-.393 1.976-.18 1.818 1.016-.75.833-1.788 1.962-3.25 2.511-3.25.548 0 .961-.788.918-1.75-.047-1.045-.282-1.247-.583-.5-.278.688-.944 1.25-1.48 1.25-.537 0-.698-.45-.358-1 .34-.55.141-1-.441-1s-1.065 1.013-1.073 2.25M99.5 46c.34.55.816 1 1.059 1s.441-.45.441-1-.477-1-1.059-1-.781.45-.441 1m33.977 4.023c-5.396 5.478-5.129 6.394.688 2.363 3.369-2.335 5.706-5.848 4.616-6.938-.221-.221-2.608 1.838-5.304 4.575M114.5 48c.34.55.816 1 1.059 1s.441-.45.441-1-.477-1-1.059-1-.781.45-.441 1m12.5 6c-.589 1.1-.845 2-.57 2s.981-.9 1.57-2c.589-1.1.845-2 .57-2s-.981.9-1.57 2M26.775 55.602c.446 2.337.259 2.543-1.736 1.91-1.988-.631-2.158-.449-1.525 1.639.391 1.292 1.045 2.711 1.453 3.153 1.304 1.414 25.38 3.653 26.78 2.491.877-.728 1.253-.703 1.253.083 0 .617-.41 1.122-.912 1.122-1.094 0-.828 2.624.377 3.721.47.428.532.217.136-.471-.395-.687-.355-1.284.09-1.327.445-.042 1.597-.227 2.559-.411 2.172-.416 2.318 1.056.187 1.874-.86.33-1.269 1.078-.908 1.661.437.707 1.492.514 3.158-.578 2.398-1.571 2.475-1.556 1.866.363-.527 1.661-.276 1.908 1.47 1.452 1.158-.303 2.698-1.503 3.422-2.667 1.638-2.632 2.942-7.974 1.771-7.251-.475.294-.831-.438-.79-1.628.058-1.7-.566-2.214-2.926-2.407-1.65-.134-4.125-.579-5.5-.989-1.375-.409-3.625-.8-5-.87-1.375-.07-4.469-.479-6.877-.909-2.561-.457-4.145-.408-3.819.12 1.303 2.108-10.866.493-13.917-1.847-.775-.594-.961-.057-.612 1.766m111.871-1.101c-1.57.819-3.145 1.314-3.5 1.102-.355-.213-2.208.689-4.118 2.005-2.137 1.472-2.841 2.392-1.832 2.392.902 0 2.328.264 3.168.586.952.365 3.153-.946 5.832-3.475 4.697-4.432 4.772-4.864.45-2.61M103 55.09c0 .376 1.362.883 3.027 1.127 1.893.278 2.892.04 2.667-.636-.389-1.165-5.694-1.623-5.694-.491M68.492 59.5c2.169 4.351 1.776 10.5-.67 10.5-.531 0-1.72.762-2.643 1.694-1.574 1.588-1.553 1.641.321.855 1.1-.461 2.9-.858 4-.882 2.039-.045 3.483-1.369 3.453-3.167-.009-.55-.664-.144-1.456.901-1.296 1.713-1.381 1.415-.858-3.003.482-4.066.22-5.332-1.53-7.401L66.997 56.5l1.495 3m80.144 1.136c-.947 1.987-1.536 3.797-1.31 4.024.227.226 1.185-1.216 2.129-3.205.944-1.99 1.533-3.8 1.31-4.024-.224-.223-1.181 1.219-2.129 3.205m-59.432.319c.671 1.075 1.36 1.814 1.532 1.643.592-.593-.954-3.598-1.851-3.598-.496 0-.353.88.319 1.955M94 60c0 .55.401 1 .892 1 .49 0 1.178 1.143 1.529 2.541.351 1.397 1.069 2.274 1.597 1.948.571-.353.354-1.517-.533-2.871-.82-1.253-1.19-2.579-.822-2.948.369-.368-.08-.67-.996-.67-.917 0-1.667.45-1.667 1m69.352 2.649c-.101 1.686.276 2.324 1.17 1.981.982-.377 1.247.507 1.037 3.458-.328 4.614.238 5.265 2.893 3.323 1.062-.776 1.451-1.411.864-1.411-.586 0-1.338-1.359-1.67-3.019-.332-1.661-1.401-3.874-2.375-4.919-1.73-1.857-1.774-1.843-1.919.587M61 63c0 .55.45 1 1 1s1-.45 1-1-.45-1-1-1-1 .45-1 1m67.605-.17c-.32.518.556 1.159 1.946 1.425 1.595.304 2.391.07 2.156-.636-.484-1.453-3.351-2.004-4.102-.789m-4.905 3.101c-.998 1.69-1.331 3.179-.785 3.516 1.175.727 2.381-1.127 2.704-4.155.314-2.94.166-2.891-1.919.639m31.3 3.843c0 2.26.477 4.403 1.06 4.763.701.433.931-.726.679-3.429-.514-5.51-1.739-6.45-1.739-1.334m-71.364.326c-1.576 1.653-2.55 3.319-2.165 3.702.755.754 5.529-4.303 5.529-5.858 0-1.315-.141-1.225-3.364 2.156m30.541-1.433c.486 2.509 2.823 2.853 2.823.416 0-1.228-.646-2.083-1.573-2.083-.932 0-1.442.68-1.25 1.667m56.302.333c.907 3.04 2.114 4.468 2.816 3.332.286-.463-.398-1.965-1.521-3.337l-2.04-2.495.745 2.5m-89.607.75c-1.243 1.586-1.208 1.621.378.378C82.916 68.821 83.445 68 82.622 68c-.207 0-.995.787-1.75 1.75m35.215 1.937c-1.327 1.276-2.114 2.619-1.75 2.984.365.364.663.137.663-.504 0-.642.852-1.167 1.893-1.167s2.147-.661 2.456-1.468c.923-2.404-.681-2.328-3.262.155m1.663 3.475c-3.772 1.378-3.464 3.034.492 2.651 2.135-.206 3.355-.91 3.573-2.063.371-1.958-.119-2.029-4.065-.588M163 77c-.825.533-1.05.969-.5.969s1.675-.436 2.5-.969c.825-.533 1.05-.969.5-.969s-1.675.436-2.5.969m-6.586 5.5c.472 2.604-1.847 3.69-2.668 1.25-.324-.962-.822-.919-2.165.19-1.377 1.137-2.14 1.192-3.633.26-1.557-.973-2.509-.759-5.421 1.217-2.835 1.924-5.412 2.538-13.072 3.112-6.277.471-9.414 1.095-9.17 1.825.639 1.917 15.672.807 19.542-1.443 1.829-1.064 3.695-1.707 4.145-1.428.45.278 1.132-.279 1.514-1.239.531-1.33 1.165-.558 2.675 3.256 1.088 2.75 2.353 5.383 2.809 5.85.795.814 9.457-3.614 10.56-5.398.622-1.007-3.67-9.884-4.8-9.925-.423-.015-.565 1.098-.316 2.473M120.5 82c-.34.55-.141 1 .441 1S122 82.55 122 82s-.198-1-.441-1-.719.45-1.059 1m13.007-.011c-.35.566.051.734.941.393 1.732-.665 2.049-1.382.611-1.382-.518 0-1.216.445-1.552.989m-24.428 3.594c.048 1.165.285 1.402.604.605.289-.722.253-1.585-.079-1.917-.332-.332-.568.258-.525 1.312m68.559.917c-.316.825-.139 1.5.393 1.5.533 0 .969-.675.969-1.5s-.177-1.5-.393-1.5c-.216 0-.652.675-.969 1.5m-38 6c-.316.825-1.377 1.514-2.357 1.532-1.639.029-1.626.149.16 1.5 1.068.807 1.405 1.468.75 1.468S137 97.675 137 98.5c0 1.827 2.014 1.942 4.333.246 1.29-.943 1.554-2.06 1.066-4.5-.694-3.471-1.824-4.186-2.761-1.746m3.362.427c0 .59.412 1.073.917 1.073.504 0 1.388 1.237 1.964 2.75 1.037 2.726 1.045 2.719.833-.742-.149-2.425-.749-3.593-1.964-3.823-.963-.182-1.75.151-1.75.742m-22.986 1.538c.033 2.533 1.3 5.441 2.585 5.934 2.335.897 4.514-.467 3.89-2.433-.314-.989-.115-2.079.441-2.423.556-.344 1.298.519 1.649 1.916.497 1.98 1.269 2.541 3.498 2.541 2.127 0 2.713-.383 2.287-1.494-.316-.822-.996-1.233-1.513-.914-.516.319-1.599.032-2.407-.639-1.127-.935-1.201-1.541-.316-2.607.963-1.161.227-1.35-4.488-1.153-3.102.13-5.634.702-5.626 1.272m11.858.199c-1.244 1.508-1.162 1.552.878.465 2.327-1.24 2.9-2.129 1.372-2.129-.482 0-1.495.749-2.25 1.664M154 97c-1.925 1.054-3.14 1.935-2.7 1.958 1.059.056 6.7-2.877 6.7-3.484 0-.654-.059-.632-4 1.526m21.623-1.122c-1.033.406-3.48.611-5.437.457-3.263-.257-3.426-.147-1.959 1.32 1.606 1.606 2.467 1.494 9.074-1.179 1.558-.631 1.707-.356 1.104 2.047-.452 1.801-.336 2.553.33 2.141.564-.349 1.243-1.766 1.507-3.149.509-2.664-.813-3.132-4.619-1.637m-57.544 2.705c.048 1.165.285 1.402.604.605.289-.722.253-1.585-.079-1.917-.332-.332-.568.258-.525 1.312m23.348 2.896c-1.692 1.28-1.721 1.461-.236 1.489.93.018 1.988-.448 2.35-1.035 1.089-1.762-.059-2.009-2.114-.454M125.5 102c-1.928.829-1.921.862.191.93 1.205.038 2.469-.38 2.809-.93.731-1.183-.248-1.183-3 0m5 1c.34.55 1.465 1 2.5 1s2.16-.45 2.5-1c.362-.585-.676-1-2.5-1-1.824 0-2.862.415-2.5 1m44.434.282c-.862.67-2.311 2.724-3.222 4.564l-1.655 3.347 2.436-1.597c1.34-.878 2.86-1.596 3.378-1.596 1.447 0 .093 3.992-3.146 9.275-2.387 3.894-2.7 5.05-1.695 6.261 1.082 1.304 1.398 1.27 2.57-.275.735-.969 1.358-1.311 1.384-.761.025.55.483.325 1.016-.5.782-1.21.972-1.058.985.781.008 1.255.802 2.577 1.765 2.938.963.362 2.298 1.36 2.968 2.219 1.032 1.323 1.223 1.084 1.25-1.566.018-1.762-.706-3.726-1.66-4.5-1.441-1.168-1.566-1.164-.845.033.591.981.478 1.177-.375.649-.672-.415-.979-.996-.684-1.291.295-.296-.336-1.764-1.404-3.263-1.068-1.499-1.771-2.9-1.564-3.113.207-.213.6-1.822.873-3.576.274-1.753.857-3.771 1.297-4.482 2.407-3.895-.105-6.321-3.672-3.547M153 106.083c0 2.437 2.337 2.093 2.823-.416.192-.987-.318-1.667-1.25-1.667-.927 0-1.573.855-1.573 2.083m-3 1.358c0 .857.45 1.559 1 1.559s1-.423 1-.941-.45-1.219-1-1.559c-.55-.34-1 .084-1 .941m-10 3.461c3.868 3.364 5.233 3.727 6.82 1.814 1.808-2.178-.339-3.912-5.446-4.396l-4.874-.463 3.5 3.045m12.008-.928c-1.091.69-1.194 1.24-.384 2.05.811.811 1.253.553 1.648-.958.298-1.136.47-2.059.384-2.051-.086.009-.827.44-1.648.959m-11.166 5.628c1.258.881 2.583 1.307 2.944.946.802-.803-1.734-2.512-3.759-2.533-.948-.01-.659.555.815 1.587m7.766-.106c-1.04.787-2.39 1.643-3 1.9-1.681.71 4.171 5.626 5.905 4.961.818-.314 1.487-.046 1.487.595s.45.888 1 .548c1.603-.99 1.16-2.225-1-2.79-2.364-.618-2.554-2.013-.548-4.02 2.663-2.662-.576-3.668-3.844-1.194m-34.039 1.428c-1.659 1.833-1.655 1.912.095 1.655 1.01-.148 1.69-.659 1.512-1.135-.178-.476.497-1.189 1.5-1.585 1.461-.575 1.506-.732.229-.789-.877-.038-2.379.796-3.336 1.854m3.89 1.143c-.363.586-.445 1.281-.183 1.543s.743-.218 1.069-1.067c.676-1.762.1-2.072-.886-.476m4.453 2.612c-2.98 1.253-3.138 1.524-1.714 2.948 1.225 1.225 2.018 1.328 3.62.471 1.128-.604 3.109-1.098 4.402-1.098 1.655 0 2.351-.571 2.351-1.927 0-2.331-3.657-2.497-8.659-.394m-12.258 3.301c-.41 2.052-1.044 2.808-2.035 2.427-.881-.338-1.693.252-2.096 1.521-.362 1.139-1.077 2.072-1.59 2.072-.513 0-.933.502-.933 1.115 0 1.459 5.042-1.813 6.975-4.526 1.737-2.437 2.382-5.589 1.144-5.589-.478 0-1.137 1.341-1.465 2.98m4.691.563c-.326.849-.311 1.824.031 2.167.343.343.624-.089.624-.96s.563-1.81 1.25-2.088c.979-.395.972-.521-.031-.583-.705-.043-1.548.615-1.874 1.464m48.766.09c.623.752 1.612 1.367 2.197 1.367s2.105.978 3.378 2.174c2.296 2.158 2.314 2.159 2.314.119 0-1.551-1.108-2.421-4.512-3.541-3.67-1.208-4.3-1.231-3.377-.119M158 129.202c0 .654 1.238 2.52 2.75 4.148 2.7 2.906 1.448 2.804-2.006-.163-.966-.829-2.039-1.226-2.384-.88-.345.345-1.794-.29-3.22-1.412-3.316-2.608-3.8-1.131-1.167 3.557 1.136 2.022 1.827 4.063 1.536 4.534-.291.471-.684 2.183-.873 3.803-.285 2.452-.033 2.866 1.503 2.464 1.404-.367 2.332.562 3.88 3.882 1.119 2.401 1.812 3.578 1.539 2.615-.669-2.365 1.116-2.228 2.407.184 1.306 2.44 1.334 4.075.035 2.066-.862-1.333-.971-1.333-.982 0-.007.825 1.24 2.967 2.772 4.759 1.532 1.792 2.855 4.267 2.94 5.5.15 2.179.114 2.187-1.288.3-.793-1.068-1.442-1.491-1.442-.941 0 .55.647 1.873 1.438 2.941 1.421 1.918 1.458 1.917 3.082-.059 1.253-1.525 1.52-1.604 1.125-.333-.294.946.135 1.918.991 2.247 1.756.674 5.364-1.013 5.364-2.508 0-.563.434-.756.964-.429.53.328-.017 1.576-1.216 2.775l-2.18 2.18 3.466.734c2.292.485 3.805.327 4.466-.466.55-.66 1.563-1.245 2.25-1.3.688-.055 1.7-.167 2.25-.25 1.197-.18 1.354-6.813.178-7.54-.452-.279-1.616.42-2.587 1.554-1.296 1.514-2.061 1.766-2.878.949-1.467-1.467-10.073-1.504-9.167-.039.365.59-.284.482-1.441-.241-2.7-1.686-2.661-2.678.145-3.709 3.812-1.4 9.443-2.245 7.758-1.164-1.095.703-1.196 1.252-.378 2.07.817.817 1.832.446 3.821-1.397 1.489-1.38 3.347-2.264 4.128-1.964.782.3 1.421.102 1.421-.44 0-1.663-2.544-3.204-4.574-2.771-4.794 1.024-8.792 1.501-7.435.888 1.058-.478.477-1.021-2-1.869-2.332-.799-3.394-1.737-3.2-2.825.16-.896-.173-2.498-.742-3.56-.753-1.408-.697-2.071.209-2.45.835-.35.391-1.278-1.353-2.831-3.779-3.365-4.36-5.621-1.299-5.035 1.333.254 2.668.859 2.968 1.343.299.485 1.53.867 2.735.849 2.004-.029 2.046-.142.489-1.325-1.093-.83-1.499-2.072-1.133-3.468.636-2.433-1.127-3.02-2.027-.675-.845 2.204-1.984 1.882-7.061-1.993-2.518-1.922-4.577-2.959-4.577-2.305m18.979.811c-1.143.707-1.199 1.167-.253 2.113.945.945 1.352.835 1.865-.502.835-2.177.251-2.762-1.612-1.611m3.508.966c.89 1.44-1.189 4.792-3.409 5.496-1.742.553-1.586.95 1.629 4.166 2.68 2.679 3.756 3.229 4.371 2.233.466-.755.355-1.606-.259-1.986-.591-.365-.764-1.168-.384-1.783.381-.616.038-1.37-.761-1.677-2.229-.855-.854-4.708 1.464-4.102 1.024.268 1.862.079 1.862-.42 0-.498-.675-.906-1.5-.906s-1.5-.45-1.5-1-.477-1-1.059-1-.787.441-.454.979m-43.404.386c.23.2 1.542.949 2.917 1.663 2.287 1.189 2.383 1.158 1.128-.364-.755-.915-2.068-1.664-2.917-1.664-.849 0-1.357.164-1.128.365m-10.22 2.438c1.151.806 1.151 1.039 0 1.497-.917.365-.763.568.47.621 2.098.09 1.775-2.098-.395-2.685-1.189-.321-1.202-.223-.075.567m-21.225 2.697c-.316.825-.316 2.175 0 3 .353.918 0 1.5-.909 1.5-.816 0-2.044.675-2.729 1.5-.818.986-.872 1.5-.156 1.5 1.613 0 9.151-7.199 8.552-8.168-.859-1.391-4.145-.93-4.758.668m49.362-.559c0 .518.445 1.216.989 1.552.566.35.734-.051.393-.941-.665-1.732-1.382-2.049-1.382-.611m3.5 2.059c.34.55.816 1 1.059 1s.441-.45.441-1-.477-1-1.059-1-.781.45-.441 1m4.064.293c.376.986.935 1.541 1.243 1.233.308-.307.001-1.114-.683-1.793-.988-.98-1.102-.865-.56.56m16.436-.262c0 .533.675.969 1.5.969s1.5-.177 1.5-.393c0-.216-.675-.652-1.5-.969-.825-.316-1.5-.139-1.5.393m-5.365 3.042c-3.04 2.391-3.404 4.706-.885 5.635.963.356 2.063 1.116 2.446 1.69.382.574 1.057.683 1.498.241.442-.441-.094-1.458-1.191-2.26-1.322-.967-1.619-1.697-.883-2.168 1.106-.708 2.905-5.211 2.082-5.211-.238 0-1.618.933-3.067 2.073M178.5 150c.34.55.816 1 1.059 1s.441-.45.441-1-.477-1-1.059-1-.781.45-.441 1m2.5 1.882c0 .55.45 1.278 1 1.618.55.34 1 .168 1-.382s-.45-1.278-1-1.618c-.55-.34-1-.168-1 .382m-72 2.059c0 .518.45 1.219 1 1.559.55.34 1 .072 1-.596 0-.835.547-.738 1.75.308 1.858 1.617 5.25 2.018 5.25.621 0-.458 1.013-.885 2.25-.949 1.609-.083 1.766-.243.552-.563-.933-.246-2.627.05-3.764.659-1.647.881-2.188.792-2.66-.437-.633-1.649-5.378-2.18-5.378-.602m-4.985 2.84c.023 2.596 1.378 4.212 2.795 3.336 1.494-.923.628-3.735-1.387-4.508-.893-.343-1.417.094-1.408 1.172m20.985 3.16c0 .518.45 1.219 1 1.559.55.34 1-.084 1-.941s-.45-1.559-1-1.559-1 .423-1 .941M110.71 164c.288 1.1.643 2 .79 2 .147 0 .502-.9.79-2 .327-1.25.03-2-.79-2-.82 0-1.117.75-.79 2m12.957-1.333c-.367.366-.667 1.131-.667 1.7 0 .626.466.567 1.183-.15.651-.651.951-1.416.667-1.7-.284-.285-.817-.217-1.183.15m64.412 4.916c.048 1.165.285 1.402.604.605.289-.722.253-1.585-.079-1.917-.332-.332-.568.258-.525 1.312m-73.266.1c.721.289 1.584.253 1.916-.079.332-.332-.258-.568-1.312-.525-1.165.048-1.402.285-.604.604m8.882 2.017c-.993.257-1.618.993-1.388 1.634.23.641-.283 2.516-1.14 4.166-2.657 5.116-2.35 7.312.525 3.75 1.287-1.595 1.353-1.529.747.75-.443 1.669-.331 2.167.338 1.5.55-.55 1.433-3.588 1.96-6.75.528-3.162.915-5.698.861-5.634-.054.064-.91.327-1.903.584M107.5 172c.34.55 1.068 1 1.618 1s.722-.45.382-1c-.34-.55-1.068-1-1.618-1s-.722.45-.382 1m11.52.476c-.789.95-.865 1.524-.201 1.524 1.208 0 2.617-1.897 1.924-2.591-.252-.251-1.027.229-1.723 1.067M183.5 172c-.34.55-.141 1 .441 1s1.059-.45 1.059-1-.198-1-.441-1-.719.45-1.059 1m2.941 3.45c-1.875 1.401-1.864 1.431.309.884 1.238-.312 2.25-.965 2.25-1.451 0-1.19-.295-1.124-2.559.567m-5.691.212c.688.278 1.25.865 1.25 1.305 0 1.278-3.733 1.9-4.829.804-1.582-1.582-3.404.23-2.897 2.882.595 3.115-2.434 5.064-4.327 2.784-1.489-1.795-3.516-.362-2.657 1.877.641 1.671 8.053 2.108 10.801.637.954-.51 3.818-1.007 6.364-1.103 5.485-.208 6.382-1.062 3.011-2.866-1.356-.726-2.466-1.849-2.466-2.496 0-1.389-3.254-4.521-4.579-4.407-.506.043-.358.306.329.583m-78.719 1.838c0 .55.436 1.675.969 2.5.533.825.969 1.05.969.5s-.436-1.675-.969-2.5c-.533-.825-.969-1.05-.969-.5m86.583.316c-.3.485.564 1.847 1.92 3.027 2.949 2.564 3.196 1.9.546-1.469-1.056-1.342-2.166-2.044-2.466-1.558M116.5 180c-.34.55-.141 1 .441 1s1.059-.45 1.059-1-.198-1-.441-1-.719.45-1.059 1m-16.421 4.583c.048 1.165.285 1.402.604.605.289-.722.253-1.585-.079-1.917-.332-.332-.568.258-.525 1.312m6.921-.144c0 .688.9 2.066 2 3.061 1.1.995 2 2.395 2 3.11 0 .722 1.665 1.58 3.75 1.932 2.063.348 4.65.874 5.75 1.17 1.1.295 1.666.184 1.259-.246-.408-.43-.272-1.348.302-2.04.77-.927.506-1.429-.999-1.906-1.124-.357-2.524-.353-3.11.01-.586.362-2.205.372-3.597.023-2.103-.528-2.323-.886-1.301-2.118.677-.816.942-1.772.589-2.126-.354-.353-.643-.117-.643.524 0 .642-.45 1.167-1 1.167s-1-.623-1-1.383c0-.761-.9-1.619-2-1.907-1.213-.317-2-.03-2 .729m79.456 3.756c-3.826 2.264-7.181 4.31-7.456 4.547-.275.237.561 1.29 1.858 2.342 3.807 3.086 2.142 4.903-4.577 4.995-3.179.043-5.2.312-4.489.597.992.398 1.021.844.127 1.921-.917 1.106-.82 1.403.459 1.403.892 0 1.622-.422 1.622-.938s.787-.953 1.75-.972c3.974-.079 9.362-.869 9.952-1.459 1.258-1.257 4.342-.587 6.298 1.369 1.483 1.483 2 1.627 2 .559 0-.793-.481-1.738-1.068-2.101-.588-.363-.827-1.29-.532-2.059.508-1.323-1.05-1.876-4.15-1.474-.687.09-1.25-.265-1.25-.788 0-.522-.787-.745-1.75-.495-.963.249-2.65-.228-3.75-1.062-2.287-1.734-.442-2.154 2.512-.573 1.437.769 2.1.615 2.808-.65.594-1.061 1.679-1.46 3.019-1.109 1.277.333 2.008.099 1.877-.601-.119-.631.459-1.028 1.284-.883 1.178.208 1.133-.024-.207-1.078-1.585-1.248-1.589-1.461-.059-2.991 3.19-3.19.603-2.572-6.278 1.5m-85.352 6.457c-1.229 1.388-1.145 1.496.713.906 1.159-.368 3.137-.164 4.395.454 2.126 1.043 2.111.978-.212-.923-2.984-2.44-3.111-2.452-4.896-.437m13.563.015c-.367.366-.667 1.131-.667 1.7 0 .626.466.567 1.183-.15.651-.651.951-1.416.667-1.7-.284-.285-.817-.217-1.183.15M100 199.895c.825.46 2.85 1.124 4.5 1.478l3 .643-2.5-1.472c-1.375-.81-3.4-1.475-4.5-1.478-1.6-.004-1.7.162-.5.829m-1.559 4.573c-1.067.808-1.434 1.483-.813 1.5.62.018 1.687-.643 2.372-1.468 1.581-1.905.935-1.918-1.559-.032m9.559.452c0 1.386 5.152 3.133 10.612 3.597 2.963.252 5.388.062 5.388-.422 0-1.254-2.727-2.137-4.5-1.457-.825.317-1.5.092-1.5-.5 0-.591-.634-.832-1.409-.535-.775.298-3.025.095-5-.45-1.975-.546-3.591-.65-3.591-.233m82 5.08c0 .55.45 1 1 1s1-.45 1-1-.45-1-1-1-1 .45-1 1m-23.842 2.691c.544.654 1.63.944 2.415.643 2.215-.85 1.685-1.834-.988-1.834-1.754 0-2.145.326-1.427 1.191M182.5 216c.34.55.816 1 1.059 1s.441-.45.441-1-.477-1-1.059-1-.781.45-.441 1m-96.047 3.344c.026 1.369.457 2.865.957 3.323.512.468.65.374.316-.215-.327-.576-.201-1.683.279-2.46.727-1.177 1.256-1.085 3.167.548 2.197 1.877 2.231 1.879.811.037-1.383-1.794-1.322-1.882.911-1.306 1.358.35 2.007.242 1.5-.249-.492-.477-2.49-1.159-4.441-1.517-3.296-.605-3.545-.475-3.5 1.839" fill="#1976D2" fill-rule="evenodd"/></svg>