<svg xmlns="http://www.w3.org/2000/svg" width="256" height="256"><path fill-opacity=".016" d="M0 128.004v128.004l128.25-.254 128.25-.254.254-127.75L257.008 0H0v128.004m.485.496c0 70.4.119 99.053.265 63.672.146-35.38.146-92.98 0-128C.604 29.153.485 58.1.485 128.5" fill="#1976D2" fill-rule="evenodd"/><path fill-opacity=".398" d="M130.5 1.865c-7.574 4.127-15.475 12.749-13.948 15.219.317.512-.083 1.59-.888 2.395-1.766 1.766-2.048 8.842-.314 7.872.809-.453.841-.307.11.493-.709.775-2.045.849-4.196.232-2.877-.825-3.425-.59-6.21 2.671-1.68 1.966-3.054 4.121-3.054 4.789 0 2.92 1.33 7.464 2.184 7.464.514 0 .656-.45.316-1s.234-1 1.274-1c3.368 0 3.254 1.237-.29 3.136-4.546 2.437-15.299 3.015-23.158 1.246-4.395-.99-6.935-1.101-8.815-.386-3.439 1.307-11.112 1.288-13.583-.035-1.068-.571-7.035-1.135-13.26-1.254-9.329-.177-11.632-.528-13.099-1.995-2.085-2.085-5.168-1.46-7.819 1.584-2.346 2.695-2.048 6.985.727 10.462.21.264 13.11 1.96 20.883 2.747 2.367.239 5.393.906 6.722 1.48 2.261.977 2.207 1.023-.832.703-5.096-.536-3.957 1.979 1.25 2.76 2.475.371 4.5 1.045 4.5 1.498 0 1.608 5.09 4.223 6.317 3.246 1.484-1.182 4.527-.926 7.367.619 1.202.654 3.538 1.189 5.191 1.189 1.654 0 3.267.421 3.586.936.318.515 1.357.958 2.309.984.951.026 7.73.543 15.062 1.149 8.644.714 15.238.773 18.75.168 4.212-.726 5.418-.65 5.418.341 0 .702.787 1.481 1.75 1.733 1.091.285.728.501-.965.573-3.347.143-4.977 2.905-4.151 7.034.396 1.982.214 3.082-.509 3.082-.619 0-1.125-.546-1.125-1.214 0-.754-.655-.559-1.729.514-1.312 1.313-1.771 3.651-1.907 9.716-.098 4.393.19 7.76.639 7.482 1.601-.989 4.16.771 3.696 2.544-.375 1.433.395 1.895 4.078 2.447 2.497.375 5.706 1.126 7.132 1.671 2.486.949 2.514 1.046.694 2.383-1.044.766-2.285 1.154-2.757.862-.473-.293-1.129.169-1.458 1.026-.329.857-.968 1.329-1.421 1.049-.453-.28-1.131.51-1.507 1.755-.376 1.246-1.75 3.21-3.054 4.366-1.304 1.156-2.108 2.364-1.787 2.685.321.32-.587 1.845-2.018 3.388-2.22 2.395-2.601 3.713-2.601 9.007 0 5.988-1.386 8.931-2.987 6.34-.543-.878-.96-.915-1.447-.128-.376.609-.192 1.107.41 1.107.686 0 .79.652.278 1.75-.448.963-.709 2.875-.58 4.25.868 9.212 1.034 23.063.282 23.527-1.241.767-.074 26.782 1.238 27.593.643.397.231 1.455-1.076 2.762-2.357 2.357-2.562 3.42-1.165 6.03.754 1.408.343 2.232-1.959 3.935-1.602 1.184-3.387 2.153-3.967 2.153-.58 0-1.836.397-2.791.883-.955.486-2.973 1.462-4.486 2.169-1.513.707-2.75 1.737-2.75 2.288 0 .551-.733 1.813-1.629 2.803s-2.048 3.725-2.559 6.078c-1.708 7.857-.999 19.63 1.104 18.331.472-.292 1.413.14 2.093.959.68.819 2.02 1.489 2.979 1.489.958 0 2.815.823 4.127 1.829 1.312 1.006 3.735 1.785 5.385 1.73 1.65-.054 3.532.585 4.183 1.421.879 1.13 1.476 1.231 2.327.393.706-.695 2.363-.853 4.321-.411 1.747.394 6.654.818 10.905.942 4.251.124 9.199.653 10.996 1.176 4.081 1.186 44.018 1.135 48.768-.063 1.925-.486 6.875-1.122 11-1.415 11.684-.829 28.731-5.542 31.63-8.746 2.115-2.337 3.21-13.416 1.496-15.13-.619-.619-1.126-1.867-1.126-2.773 0-.906-.9-2.685-2-3.953-1.1-1.268-2-3.278-2-4.465 0-2.297-4.837-6.535-7.46-6.535-.847 0-1.54-.8-1.54-1.777 0-.978-.701-2.778-1.557-4-1.451-2.073-1.423-2.223.426-2.223 1.691 0 1.94-.583 1.698-3.976-.156-2.188-.852-4.663-1.547-5.5-.99-1.192-1.003-1.84-.06-2.976 1.488-1.792.545-5.117-2.476-8.731-1.78-2.13-2.204-3.78-2.056-8 .103-2.925-.34-5.992-.983-6.817-.644-.825-1.452-2.991-1.795-4.813-.558-2.958-.416-3.247 1.327-2.694 2.549.809 8.056-3.195 7.69-5.591-.267-1.753-6.121-7.727-10.38-10.594-1.978-1.331-2.068-1.72-.849-3.649 2.019-3.192 2.987-8.659 1.534-8.659-.652 0-.952-.609-.667-1.353.286-.744-.341-2.09-1.393-2.99-1.054-.903-1.912-2.919-1.912-4.492 0-1.585-.89-3.66-2-4.665-1.1-.995-2-2.415-2-3.155 0-.74-.562-1.352-1.25-1.36-.833-.011-.75-.339.25-.985 1.315-.85.778-1.398-1.134-1.157-1.071.135 1.329-8.237 2.875-10.03.8-.928 1.159-2.165.798-2.75s-.15-1.063.469-1.063c.672 0 .87-.808.492-2-.364-1.147-.18-2 .433-2 1.734 0 1.22-7.756-.85-12.815-1.055-2.577-2.202-5.977-2.55-7.556-.347-1.579-1.285-3.523-2.082-4.321-.798-.798-1.451-2.292-1.451-3.32 0-1.029-.457-2.153-1.016-2.498-.559-.346-.715-1.117-.346-1.714.375-.605.211-.801-.37-.442-1.441.891-3.447-1.775-3.622-4.812-.08-1.386-.51-2.521-.955-2.521-.445-.001-.524-.462-.176-1.026.349-.563.263-.96-.191-.881-2.991.519-4.106-.215-3.557-2.344.503-1.952.371-2.079-.996-.958-.867.71-1.733.935-1.924.5-.67-1.528-6.839-4.179-8.833-3.795-1.207.233-2.014-.147-2.014-.947 0-.735-.675-1.595-1.5-1.912-.825-.316-1.5-1.216-1.5-2 0-1.921-2.388-2.71-6.011-1.986-2.431.486-2.989.263-2.989-1.198 0-.988-.737-2.611-1.638-3.607-1.365-1.508-1.42-2.072-.328-3.388 1.149-1.384 1.366-5.915.788-16.459-.155-2.837-6.304-10.3-10.393-12.615-3.017-1.708-13.457-1.412-16.929.48m30.5 128c0 1.026-.9 3.009-2 4.408-1.1 1.398-2.007 3.146-2.015 3.885-.035 3.009-1.537 3.963-4.481 2.844-1.883-.716-3.164-.742-3.828-.078-1.609 1.609-5.585 15.15-4.941 16.829.325.845-.107 2.046-.96 2.669-1.907 1.395-3.467 11.032-3.704 22.891-.128 6.386-.658 9.604-1.926 11.69-1.294 2.128-1.606 4.117-1.198 7.636l.553 4.759 5 1.095c2.75.602 4.416 1.307 3.703 1.567-.713.259.572.52 2.856.58 2.724.072 3.686-.194 2.797-.772-.849-.552.982-.823 4.894-.725 4.636.116 6.25.52 6.25 1.566 0 .775.457 1.126 1.016.781.559-.346.789-.996.512-1.445-.822-1.33 2.71-1.768 6.407-.796 2.604.685 3.088 1.124 2 1.812-.901.571-.992.914-.244.924.655.008 1.432-.374 1.726-.85.567-.919 9.775-2.73 15.524-3.054 1.115-.063 1.046-.37-.305-1.358-1.265-.925-1.758-2.717-1.788-6.5-.022-2.873-.473-5.223-1.003-5.223-.53 0-.73-.378-.444-.84.285-.461-.302-2.374-1.305-4.25-1.324-2.474-1.962-6.429-2.325-14.41-.484-10.614-2.351-17.48-4.28-15.735-.446.404-.509.207-.139-.439s-.458-3.301-1.84-5.899c-1.382-2.599-2.512-5.306-2.512-6.017 0-1.973-2.109-2.841-3.131-1.288-.74 1.124-1.181 1.019-2.392-.568-.993-1.303-1.152-2.279-.481-2.95 2.108-2.108.783-10.919-1.608-10.689-.488.047-.944-.365-1.013-.915l-.25-2c-.229-1.832-3.125-1.03-3.125.865m4.75 81.797c.688.278 1.813.278 2.5 0 .688-.277.125-.504-1.25-.504s-1.937.227-1.25.504m23.329 4.921c.048 1.165.285 1.402.604.605.289-.722.253-1.585-.079-1.917-.332-.332-.568.258-.525 1.312m2 2.108c-.114 1.721 1.656 2.548 2.506 1.171.432-.698.292-.904-.345-.51-.588.363-1.297.095-1.576-.596-.362-.899-.529-.917-.585-.065M145.5 224c-.34.55-.141 1 .441 1s1.059-.45 1.059-1-.198-1-.441-1-.719.45-1.059 1m9.845.543c-.326.849-.369 1.767-.096 2.04.274.273.737-.422 1.03-1.543.624-2.383-.069-2.751-.934-.497m18.655.211c0 .598-1.345 1.382-2.989 1.743-3.006.661-5.164 2.503-2.93 2.503.659 0 1.781.787 2.494 1.75 1.173 1.585 1.448 1.386 2.918-2.108.893-2.122 1.373-4.11 1.066-4.417-.308-.307-.559-.069-.559.529m6.181 1.31c-.726 1.172-1.063 2.387-.75 2.7.313.313.569-.025.569-.752 0-.922.676-.745 2.233.583 1.228 1.048 1.726 1.23 1.107.405-.618-.825-1.286-2.303-1.482-3.284-.322-1.605-.49-1.57-1.677.348m4.56-.899c.683.835.946 1.815.584 2.177-.362.362-.085.658.615.658.701 0 1.029.638.73 1.417-.299.78.153 1.685 1.004 2.012 1.166.447 1.374.159.841-1.168-.39-.968-.811-2.374-.937-3.123-.125-.75-1.094-1.842-2.153-2.427-1.655-.916-1.751-.852-.684.454M139 227.393c0 .216.675.652 1.5.969.825.316 1.5.139 1.5-.393 0-.533-.675-.969-1.5-.969s-1.5.177-1.5.393m19.048.556c-.799.506-1.924.637-2.5.293-.577-.344-.43.135.324 1.066.755.931 2.143 1.692 3.084 1.692 2.446 0 3.115.998 2.03 3.026-.98 1.83 1.022 4.632 2.356 3.299.362-.362.658.065.658.949 0 .885-.481 1.905-1.068 2.268-.588.363-.827 1.29-.532 2.059.415 1.079-.541 1.392-4.181 1.367-4.658-.031-8.219-1.664-8.219-3.769 0-2.506-1.957-1.992-3.395.891-1.341 2.687-1.348 2.942-.054 1.868.823-.684 1.811-.929 2.194-.546s.035 1.115-.774 1.627c-1.753 1.108-.673 1.157 21.029.95 17.695-.169 23.162-.858 23.744-2.993.272-.996.132-1.114-.418-.351-.454.629-3.223 1.381-6.152 1.669-4.666.46-5.255.318-4.748-1.144.508-1.465.411-1.455-.784.08-1.731 2.223-6.842 2.435-6.004.25.317-.825.078-1.5-.531-1.5s-1.107.675-1.107 1.5c0 1.116-1.179 1.5-4.607 1.5-3.79 0-4.499-.28-4-1.582.334-.87.607-1.995.607-2.5 0-.505.477-.918 1.059-.918s.837.359.566.798c-1.021 1.651.839 3.019 2.164 1.591.744-.801.85-1.389.25-1.389-.571 0-1.039-.9-1.039-2s-.9-2.9-2-4-2.037-2.338-2.083-2.75c-.046-.412-.343-.975-.661-1.25-.317-.275-.253.063.143.75.917 1.594-.62 1.629-2.199.05-1.532-1.532-1.566-3.144-.045-2.205.715.443.883.275.44-.44-.854-1.383-1.616-1.427-3.547-.206m40.393.625c-1.067.866-1.41 1.309-.76.984.649-.325 1.463-.133 1.809.426 1.026 1.659 2.081 1.16 2.081-.984 0-2.412-.583-2.491-3.13-.426m-56.253.638c-2.055 2.055-1.31 3.415 2.511 4.588 2.035.624 3.791 1.037 3.903.918.111-.12-1.019-1.675-2.512-3.456-2.096-2.499-2.986-2.966-3.902-2.05m50.47 1.237c-.371.967-.076 1.265.887.895.794-.304 1.195-.956.89-1.449-.766-1.24-1.132-1.126-1.777.554m-76.658.475c0 .474.675 1.121 1.5 1.438.825.316 1.5.187 1.5-.286 0-.474-.675-1.121-1.5-1.438-.825-.316-1.5-.187-1.5.286m32.5.076c.34.55.816 1 1.059 1s.441-.45.441-1-.477-1-1.059-1-.781.45-.441 1m26.138.5c-.316.825-.331 2.136-.033 2.913.309.806-.155 1.557-1.082 1.75-1.496.311-1.495.494.009 2.337 1.517 1.86 1.589 1.868 1.027.109-.512-1.601-.371-1.698.918-.628.838.695 1.559 1.996 1.602 2.891.05 1.037.262 1.174.583.378.278-.687 1.051-1.25 1.718-1.25 1.4 0 1.564-4.427.21-5.667-.529-.484-.609-.309-.191.417.445.773.124 1.25-.84 1.25-1.443 0-2.029-1.703-1.634-4.75.229-1.76-1.592-1.561-2.287.25m-41.138.5c.34.55.816 1 1.059 1s.441-.45.441-1-.477-1-1.059-1-.781.45-.441 1m18.5-.617c0 .211 1.111.596 2.47.856 1.358.26 2.232.087 1.941-.383-.512-.829-4.411-1.246-4.411-.473m31.31 3.464c-.142 2.745.015 3.156.631 1.653.694-1.692.934-1.416 1.559 1.797.407 2.088.973 3.563 1.258 3.278.602-.602-1.736-9.444-2.645-10.003-.337-.208-.698 1.267-.803 3.275M122.5 233c.34.55.816 1 1.059 1s.441-.45.441-1-.477-1-1.059-1-.781.45-.441 1m13.5-.622c0 .207.787.995 1.75 1.75 1.586 1.243 1.621 1.208.378-.378-1.307-1.666-2.128-2.195-2.128-1.372m68.527.578c-.325.526-1.234.71-2.019.409-1.044-.401-1.311.062-.992 1.72.463 2.402 2.484 5.1 2.484 3.315 0-.55-.495-1.495-1.101-2.101-.801-.801-.528-1.282 1-1.767 1.156-.367 2.101-1.086 2.101-1.599 0-1.206-.721-1.194-1.473.023m-94.342.429c.173.099 1.05.74 1.948 1.423 1.306.994 1.732.987 2.123-.032.306-.8-.421-1.331-1.948-1.424-1.341-.082-2.296-.067-2.123.033m21.379 1.908c.376.986.935 1.541 1.243 1.233.308-.307.001-1.114-.683-1.793-.988-.98-1.102-.865-.56.56m10.213 1.558c-.36 1.317-1.112 2.06-1.71 1.691-1.735-1.073-1.216 1.092.62 2.586 1.471 1.196 1.607 1.156 1.056-.313-.347-.927-.155-1.844.427-2.038.582-.194.876-1.236.654-2.315-.365-1.767-.469-1.728-1.047.389M149.5 236c-.34.55-.141 1 .441 1s1.059-.45 1.059-1-.198-1-.441-1-.719.45-1.059 1m12 0c.34.55.816 1 1.059 1s.441-.45.441-1-.477-1-1.059-1-.781.45-.441 1m-26 1c.34.55.816 1 1.059 1s.441-.45.441-1-.477-1-1.059-1-.781.45-.441 1m29.5 0c0 .55.45 1 1 1s1-.45 1-1-.45-1-1-1-1 .45-1 1m46.429 1c0 1.1.353 2 .785 2 .432 0 .786-.9.786-2s-.354-2-.786-2c-.432 0-.785.9-.785 2m-66.35.583c.048 1.165.285 1.402.604.605.289-.722.253-1.585-.079-1.917-.332-.332-.568.258-.525 1.312M152 238c-.825.533-1.05.969-.5.969s1.675-.436 2.5-.969c.825-.533 1.05-.969.5-.969s-1.675.436-2.5.969m41.658.551c.306.797.958 1.449 1.449 1.449 1.438 0 1.026-1.735-.556-2.342-.969-.372-1.265-.076-.893.893M99 238.211c.275.271 2.065 1.021 3.977 1.668 1.913.646 3.038.745 2.5.219-.537-.526-2.327-1.277-3.977-1.668s-2.775-.49-2.5-.219m26.803 1.539c-.432 1.58-1.371 2.25-3.15 2.25-1.394 0-2.827-.472-3.183-1.049-.435-.704-1.163-.622-2.217.25-1.351 1.118-.954 1.393 2.839 1.975 2.424.372 6.433.68 8.908.686l4.5.01-3.208-1.597c-1.764-.879-3.357-2.313-3.54-3.186-.237-1.131-.51-.941-.949.661m-14.534 1.943c.973.254 2.323.237 3-.037.677-.274-.119-.481-1.769-.461-1.65.02-2.204.244-1.231.498m23.942.918c-1.074 1.156-.906 1.391 1 1.403 1.259.007 3.189.168 4.289.356 1.1.189 1.438.15.75-.087-.687-.236-1.25-.873-1.25-1.415s-.5-.677-1.112-.299c-.611.378-1.399.229-1.75-.33-.406-.647-1.107-.512-1.927.372m61.789-.552c0 .582.45.781 1 .441s1-.816 1-1.059-.45-.441-1-.441-1 .477-1 1.059m-56 5.787c0 .542-1.694.736-3.87.445-2.129-.286-4.11-.131-4.403.345-.293.475 1.657.961 4.333 1.079 4.662.206 7.101-.879 4.956-2.205-.559-.345-1.016-.194-1.016.336m11.75.906c-1.882.424-2.443 2.248-.691 2.248.582 0 .781.45.441 1-.399.645 2.861.933 9.191.811 6.564-.127 7.907-.309 4.059-.55-4.128-.259-5.75-.761-5.75-1.78 0-.855-.6-1.188-1.513-.838-.832.32-2.069.161-2.75-.352-.68-.514-2.024-.756-2.987-.539m9.364.177c-.859.532-.962 1.047-.29 1.462.571.353 1.339.154 1.707-.441.918-1.486.188-2.012-1.417-1.021m5.155.764c.973.254 2.323.237 3-.037.677-.274-.119-.481-1.769-.461-1.65.02-2.204.244-1.231.498M154.5 251c.34.55 1.379.993 2.309.985 1.457-.014 1.484-.15.191-.985-1.958-1.266-3.282-1.266-2.5 0m-18.231.693c.973.254 2.323.237 3-.037.677-.274-.119-.481-1.769-.461-1.65.02-2.204.244-1.231.498" fill="#1976D2" fill-rule="evenodd"/><path fill-opacity=".391" d="M135.386 1.437c-.303.79-1.081 1.233-1.729.985-.648-.249-3.629 1.127-6.626 3.058C121.916 8.776 118 14.078 118 17.71c0 .744-.63 1.595-1.4 1.89-1.555.597-1.961 7.059-.5 7.962 2.214 1.368.576 2.187-2.613 1.307-3.63-1.002-5.954-.434-4.94 1.207.319.516-.116 1.205-.965 1.531-1.159.445-1.3 1.052-.564 2.427 1.523 2.845 1.21 3.262-1.973 2.625-2.717-.543-2.89-.413-2.142 1.625.511 1.393 1.816 2.336 3.514 2.538 1.925.23 2.596.805 2.333 2-.203.923-.952 1.55-1.665 1.393-.712-.157-1.811.14-2.44.66-.63.521-2.945 1.271-5.145 1.668-2.2.397-4.809 1.567-5.798 2.599-1.412 1.475-2.22 1.651-3.765.824-1.549-.829-2.1-.704-2.598.592-.351.915-.012 2.084.765 2.637 1.076.766.977.858-.436.399-1.007-.327-2.006-.594-2.218-.594-.213 0-.1-.747.25-1.661.511-1.331.189-1.543-1.622-1.07-1.377.36-3.494-.161-5.419-1.335-2.899-1.768-2.969-1.927-.85-1.93 1.27-.002 2.038-.443 1.706-.979-.792-1.282-6.837-.558-7.315.875-.204.612-.76.872-1.236.578-.476-.295-2.575-.586-4.665-.648-2.089-.062-5.005-.719-6.479-1.461-1.473-.741-4.848-1.33-7.5-1.309-14.057.114-15.715-.048-19.005-1.858-2.381-1.311-6.093-.408-7.989 1.944-1.607 1.993-.411 7.738 1.864 8.956 1.438.769 18.353 3.066 28.56 3.878 1.068.085-.073 2.02-1.191 2.02-.793 0-1.726.461-2.074 1.025-.349.563-.263.924.191.802 1.374-.372 5.658 1.319 8.609 3.397 2.098 1.478 3.116 1.688 4.123.852 1.285-1.066 2.742-.873 7.092.938 8.784 3.657 36.473 6.492 45.872 4.697 3.346-.638 4.214-.397 6.387 1.775L127.273 75h-3.169c-3.714 0-5.299 2.835-4.039 7.227.892 3.109-.46 4.677-1.865 2.166-.738-1.319-1.088-1.384-1.744-.322-.451.73-.89 2.251-.974 3.379-.085 1.127-.504 4.188-.932 6.8-.509 3.112-.42 4.75.26 4.75.57 0 2.467 1.204 4.215 2.675 1.748 1.471 3.92 2.752 4.827 2.846 1.281.134 5.946 1.923 7.922 3.038.791.447-1.175 3.441-2.259 3.441-.698 0-1.826.67-2.506 1.489-.68.819-1.559 1.289-1.953 1.045-.395-.244-1.328 1.111-2.074 3.011-.745 1.9-1.932 3.455-2.637 3.455-.729 0-1.034.647-.707 1.5.317.825.078 1.5-.531 1.5s-1.107.675-1.107 1.5-.675 1.5-1.5 1.5-1.556.45-1.625 1l-.283 2.25c-.185 1.453 1.32 2.713 3.265 2.735.81.009 1.12-.602.769-1.517-.391-1.018.244-1.848 1.893-2.475 1.365-.519 2.491-1.292 2.503-1.718.012-.426.909-1.9 1.993-3.275l1.97-2.5-1.408 4.796c-1.935 6.587-3.272 7.958-7.303 7.488-2.44-.285-3.202-.04-2.837.913.275.717.034 1.303-.536 1.303-.606 0-.752.895-.351 2.157.5 1.576.086 2.609-1.534 3.831-1.604 1.21-2.321 2.97-2.587 6.352-.351 4.449-.211 4.748 2.851 6.088 2.656 1.162 2.839 1.423 1.046 1.49-1.987.075-2.222.747-2.732 7.832-1.278 17.726-1.503 22.684-.978 21.494.685-1.552 2.384-.637 2.384 1.284 0 .85-.603 1.178-1.519.826-1.27-.487-1.475.38-1.25 5.282.148 3.225.719 6.202 1.269 6.614.667.5.667 1 0 1.5-.55.412-1.535 1.713-2.189 2.889-.979 1.76-.88 2.465.555 3.977 1.67 1.759 1.595 1.939-1.763 4.218-1.929 1.309-4.429 2.753-5.555 3.21-1.916.776-1.89.833.393.893 2.363.061 2.379.11.5 1.531-1.067.808-1.469 1.483-.891 1.5.577.018 1.539-.457 2.137-1.055.783-.783 1.275-.783 1.759 0 1.242 2.01 3.795 1.112 7.248-2.55 2.321-2.461 3.759-3.31 4.446-2.623 1.14 1.14-4.71 7.247-6.949 7.255-.72.003-1.05.424-.734.936 1.047 1.694-1.19 2.078-7.27 1.246-5.077-.694-6.369-.543-8.347.979-1.287.99-1.89 1.816-1.34 1.837 1.176.044-1.593 1.969-2.865 1.992-.476.008-.137-1.096.753-2.455 1.267-1.934 1.314-2.353.214-1.931-1.711.657-2.769 4.18-1.492 4.969.508.314.667.984.354 1.49-.312.505.085.669.883.362.798-.306 1.755-.065 2.126.537.372.601.149.969-.495.818-.644-.151-1.554.715-2.023 1.924-.619 1.595-.514 2.069.381 1.725.679-.26 2.231.456 3.449 1.59 2.027 1.889 2.216 1.912 2.23.275.013-1.455.184-1.522.92-.359 1.007 1.591 4.065 2.374 4.065 1.041 0-.469-.45-1.131-1-1.471-.55-.34-1-1.097-1-1.681 0-.682.527-.627 1.466.153.807.669 2.044 1.012 2.75.762s3.25.628 5.654 1.953c5.181 2.854 6.846 2.329 1.993-.629-1.85-1.128-2.925-2.052-2.39-2.054.534-.002-.028-.705-1.25-1.561-1.223-.856-2.223-1.931-2.223-2.389 0-1.14 3.327-.79 4.235.446.415.565.741.238.75-.75.01-1.215-.768-1.75-2.544-1.75-1.458 0-2.292-.432-1.939-1.004.341-.552 1.659-.743 2.928-.424 1.781.447 2.876-.148 4.802-2.609 2.45-3.131 2.541-3.158 5.082-1.493 1.55 1.016 3.41 1.435 4.637 1.046 2.342-.744 2.77-2.516.608-2.516-.793 0-1.755-.508-2.139-1.13-.422-.682-.156-.949.671-.673.753.251 2.087-.43 2.965-1.514 1.569-1.938 1.641-1.923 4.313.923 1.916 2.04 2.507 2.327 2.001.97-.568-1.524-.37-1.79.956-1.281.921.353 1.674.206 1.674-.326 0-.533.702-.969 1.559-.969s1.281.45.941 1c-.34.55.046 1 .858 1 .811 0 1.632-.47 1.823-1.044.192-.575 1.279-1.115 2.417-1.201 1.138-.085 2.069-.76 2.069-1.498 0-.767-.627-1.103-1.46-.783-.803.308-2.078.048-2.834-.579-1.571-1.304-1.886-3.33-.373-2.395.55.34 1 .141 1-.441S139.623 209 137.941 209c-2.062 0-2.826-.377-2.344-1.158.491-.793.037-.979-1.442-.593-1.187.311-1.906.156-1.597-.342.308-.499 1.208-.907 2.001-.907 1.605 0 1.943-1.571.526-2.447-.503-.311-1.142 0-1.421.691-.322.8-.535.66-.585-.387-.043-.904.588-1.899 1.404-2.212.831-.319 1.228-1.234.903-2.082-.319-.832.373-3.054 1.537-4.939 1.659-2.684 2.073-4.804 1.91-9.776-.365-11.15 1.14-22.513 3.233-24.408 1.42-1.285 1.631-2.137.879-3.543-.659-1.231-.648-2.528.032-3.874 2.429-4.805 2.805-5.752 3.46-8.737.979-4.456 2.702-5.635 6.023-4.122 2.174.99 2.842.966 3.519-.13.46-.744.618-1.921.351-2.616-.266-.695.45-2.198 1.593-3.341 1.142-1.142 2.077-3.175 2.077-4.518 0-5.317 3.596-4.268 6.75 1.969 2.456 4.857 2.863 8.459 1.151 10.171-.615.615-.792 2.07-.401 3.301.508 1.602.998 1.902 1.799 1.101 1.946-1.946 3.268-1.189 4.623 2.649.728 2.063 1.859 4.425 2.513 5.25 3.626 4.572 6.542 17.039 6.557 28.027.005 3.041.619 6.416 1.366 7.5 1.523 2.214 4.162 9.569 3.847 10.723-.232.847 1.048 1.044 5.058.779 4.346-.287 8.737.995 8.737 2.55 0 .782-.338 1.479-.75 1.55-3.206.551-7.198.377-9.551-.416-3.292-1.11-4.485-.365-2.755 1.719 1.407 1.696.619 3.568-1.503 3.568-.793 0-1.441.45-1.441 1s.45 1 1 1 1 .675 1 1.5.502 1.5 1.117 1.5c.614 0 .911-.787.659-1.75-.373-1.431.29-1.794 3.634-1.99l4.09-.241-3 2.589-3 2.589 2.75-.617c2.624-.59 3.88.693 1.725 1.762-.564.279-.451.395.25.256.701-.139 1.423-1.508 1.603-3.043.303-2.578.59-2.749 3.75-2.236 1.882.305 3.422.134 3.422-.382 0-1.664 1.481-.998 2.92 1.313 1.226 1.969 1.217 2.098-.069 1.036-1.003-.829-2.404-.936-4.411-.336-2.395.715-2.532.894-.737.964 3.142.123 7.297 2.19 7.297 3.632 0 1.519 4.929 4.858 5.835 3.952.364-.364-.211-1.3-1.278-2.08-1.066-.78-1.424-1.418-.795-1.418.63 0 1.95 1.068 2.934 2.373 1.697 2.248 1.87 2.28 3.321.607 1.46-1.683 1.64-1.676 3.899.153 1.647 1.333 2.456 3.144 2.655 5.944.247 3.473-.047 4.153-2.142 4.95-1.336.508-2.429 1.208-2.429 1.555 0 .348.675.373 1.5.056.825-.316 1.5-.07 1.5.548 0 .618.877.33 1.949-.64 2.422-2.192 2.213-7.14-.472-11.18-1.048-1.576-1.788-3.608-1.645-4.515.274-1.74-3.79-5.11-7.582-6.287-1.614-.501-2.25-1.471-2.25-3.431 0-1.503-.469-3.202-1.042-3.775-.724-.724-.57-1.435.5-2.323 1.932-1.603 1.941-5.923.018-8.465-1.289-1.704-1.27-2.141.167-3.728 1.513-1.672 1.453-2.028-.864-5.07-3.044-3.998-3.728-6.047-3.943-11.806-.092-2.456-.767-5.914-1.501-7.684-.734-1.77-1.335-4.121-1.335-5.225 0-1.697.464-1.914 3-1.407 1.911.382 3 .192 3-.525 0-.619.675-1.125 1.5-1.125s1.5-.753 1.5-1.674c0-1.422-.349-1.347-2.314.5-2.605 2.446-3.865 2.805-3.131.89.28-.728-1.202-2.35-3.426-3.75-3.375-2.123-3.776-2.744-2.889-4.466.567-1.1 1.169-2.162 1.338-2.359.169-.198 1.795.685 3.614 1.961 2.708 1.899 3.036 1.972 1.808.402-2.621-3.351-4.968-5.504-6-5.504-1.368 0-1.256-1.176.437-4.596 1.16-2.343 1.217-3.725.294-7.154-.629-2.337-1.501-4.25-1.938-4.25-.436 0-.793-1.514-.793-3.364 0-2.325-.931-4.411-3.011-6.75-1.656-1.863-3.264-4.338-3.574-5.502-.653-2.447 1.169-10.009 2.628-10.911.545-.336.756-.989.47-1.452-.286-.462.382-2.942 1.483-5.511 2.272-5.302 1.851-9.733-.838-8.804-.912.316-2.126 1.143-2.699 1.839-.583.709-2.89 1.197-5.25 1.11-2.316-.085-4.357.286-4.536.825-.204.611-1.238.543-2.75-.182-1.962-.941-2.072-1.176-.581-1.23 1.014-.038 2.987-.968 4.385-2.068 1.399-1.1 3.135-2 3.858-2 .724 0 1.774-.787 2.335-1.75 1.368-2.349 1.41.265.045 2.816-.827 1.544-.707 1.934.593 1.934.896 0 1.865-.9 2.152-2 .288-1.1.921-2 1.407-2 1.127 0 1.137-2.517.018-4.764C195.986 71.915 193 64.731 193 63.478c0-.813-.441-1.478-.981-1.478-.539 0-1.262-1.122-1.607-2.493-.344-1.371-1.01-2.255-1.481-1.964-.47.29-2.035-1.254-3.476-3.432-1.442-2.179-3.146-4.16-3.788-4.404-1.998-.758-7.665.461-7.697 1.656-.017.626-.489.349-1.05-.613-.561-.963-1.672-1.75-2.47-1.75-.797 0-1.45-.45-1.45-1s.45-1 1-1c1.765 0 1.079-1.539-2.162-4.855-1.74-1.779-3.765-3.003-4.5-2.721-1.995.765-4.338-.424-4.338-2.202 0-.861-.746-2.389-1.659-3.397-1.278-1.413-1.425-2.348-.64-4.079 1.681-3.709.974-14.82-1.173-18.442-1.042-1.757-2.274-2.961-2.736-2.675-.463.286-.777.149-.698-.305.523-3.012-3.475-4.971-9.034-4.427-3.251.318-7.575-1.953-5.829-3.061 1.022-.648 1.019-.808-.012-.821-.705-.008-1.53.632-1.833 1.422m-7.268 7.379c-.065 1.273-.559 3.14-1.098 4.148-1.611 3.009 2.432 4.97 7.327 3.554 3.033-.877 3.562-1.348 2.5-2.227-.741-.613-2.695-1.266-4.342-1.453-2.407-.271-3.121-.927-3.632-3.338-.515-2.426-.659-2.557-.755-.684m12.314 5.295c-.802 1.297-.452 1.611 2.273 2.041 1.212.191 2.258-.08 2.324-.602.175-1.393-3.848-2.652-4.597-1.439m8.381-.428c.721.289 1.584.253 1.916-.079.332-.332-.258-.568-1.312-.525-1.165.048-1.402.285-.604.604M120 24c0 .55.477 1 1.059 1s.784.445.448.989c-.35.566.051.734.941.393 1.997-.767 1.983-2.003-.03-2.775-2.134-.819-2.418-.773-2.418.393m-9 7.471c0 1.015 2.92 2.467 3.4 1.691.318-.514-.317-1.169-1.411-1.455-1.094-.286-1.989-.392-1.989-.236m9 .469c0 .77-.649 1.025-1.641.644-1.399-.537-1.447-.395-.326.956 1.2 1.446 1.398 1.441 2.234-.052.504-.901.65-1.904.325-2.23-.326-.325-.592-.018-.592.682m24.079.643c.048 1.165.285 1.402.604.605.289-.722.253-1.585-.079-1.917-.332-.332-.568.258-.525 1.312m-14.829 1.106c1.983.518 2.42 4.303.5 4.326-.885.011-.838.276.159.908 2.626 1.662 4.034.213 2.914-3-.725-2.08-1.64-2.89-3.171-2.807-1.69.091-1.777.214-.402.573M139 34c-.793.49-1.11 1.223-.704 1.629.405.406 1.262.213 1.904-.429 1.511-1.511.668-2.354-1.2-1.2m-27.812 3.063c.24.721 1.028 1.509 1.75 1.75.75.25 1.125-.125.875-.875-.241-.722-1.029-1.51-1.75-1.75-.75-.25-1.125.125-.875.875m38.692-.056c-.891.521-2.404 2.144-3.363 3.607l-1.742 2.66 3.612-2.756c1.987-1.515 3.613-3.152 3.613-3.637 0-1.07-.081-1.065-2.12.126M118.5 39c.34.55 1.041 1 1.559 1s.941-.45.941-1-.702-1-1.559-1-1.281.45-.941 1m42.127 6.25c-.78 1.237-1.743 3.331-2.138 4.651-.586 1.954-.418 2.286.896 1.782.937-.36 1.628-.109 1.645.598.017.671.517.382 1.111-.64.753-1.296.767-2.547.047-4.127-.731-1.605-.705-2.597.089-3.391.618-.618.818-1.123.446-1.123-.372 0-1.315 1.013-2.096 2.25m-8.627.809c0 .582-.446.783-.992.446s-1.783-.15-2.75.416c-1.476.864-1.307.997 1.055.831 2.721-.192 6.265-2.752 3.809-2.752-.617 0-1.122.477-1.122 1.059M73.683 50.12c.271 1.42.04 4.224-.514 6.231-1.034 3.743-.486 4.566 1.631 2.449 1.632-1.632 1.515-6.987-.205-9.34-1.325-1.811-1.378-1.773-.912.66m21.883 3.13l.7 2.25-2.305-2c-2.608-2.263-1.79-.254 1.293 3.176 1.075 1.197 1.686 2.612 1.357 3.145-.33.533.096 1.236.947 1.563.921.353 1.288.176.908-.439-.351-.568.023-2.042.83-3.275 1.315-2.006 1.281-2.474-.324-4.456-2.372-2.929-4.323-2.909-3.406.036m54.17-.652c-.329.329-.384 1.156-.122 1.84.263.683-.218 1.819-1.068 2.524-1.661 1.378-2.06 3.038-.731 3.038.708 0 4.185-6.259 4.185-7.534 0-.667-1.557-.576-2.264.132m17.299.86c-1.092 1.316-.932 1.54 1.093 1.527 1.304-.009 3.047-.501 3.872-1.095 1.297-.932 1.279-1.009-.128-.562-.896.283-2.062.082-2.593-.449-.619-.619-1.422-.411-2.244.579m-84.299 1.14c-.329.329-.356 1.229-.06 2 .296.771.04 1.402-.569 1.402S81 58.45 81 59s.675 1 1.5 1c1 0 1.5-1 1.5-3 0-3.061-.209-3.458-1.264-2.402m74.332 2.528c.568 1.062 1.46 1.666 1.982 1.343 1.552-.959 1.087-2.2-1.033-2.754-1.695-.443-1.833-.239-.949 1.411m17.456 2.836c.312 2.455.81 4.705 1.107 5 .296.296 1.684-.793 3.084-2.419 1.721-1.999 2.141-3.091 1.299-3.372-.685-.228-1.619.19-2.075.928-.93 1.505-1.054 1.411-2.764-2.099-1.096-2.249-1.162-2.053-.651 1.962M108.5 58c.34.55.816 1 1.059 1s.441-.45.441-1-.477-1-1.059-1-.781.45-.441 1m-38.628 4.75c-1.243 1.586-1.208 1.621.378.378C71.916 61.821 72.445 61 71.622 61c-.207 0-.995.788-1.75 1.75m76.659.2c-.368.595-1.146.788-1.73.427-.598-.369-.868-.077-.618.671.678 2.035 2.495 2.233 3.217.351.754-1.964.112-3.036-.869-1.449m34.548.633c.048 1.165.285 1.402.604.605.289-.722.253-1.585-.079-1.917-.332-.332-.568.258-.525 1.312M74.5 64c-.34.55-.141 1 .441 1S76 64.55 76 64s-.198-1-.441-1-.719.45-1.059 1m58.579 3.583c.048 1.165.285 1.402.604.605.289-.722.253-1.585-.079-1.917-.332-.332-.568.258-.525 1.312m57.579 9.092c-.97.971-.8 4.325.22 4.325.482 0 1.388-.615 2.012-1.367.857-1.033.803-1.643-.22-2.492-.745-.618-1.65-.828-2.012-.466m-15.877 1.483c-.238.714-1.406 1.308-2.594 1.32-1.189.012-2.158.472-2.155 1.022.004.55.825 1 1.826 1 1 0 2.514.574 3.364 1.276 2.187 1.806 3.263-1.245 1.385-3.927-.983-1.402-1.521-1.606-1.826-.691m-26.953 3.745c-3.12.334-6.008.943-6.417 1.353-1.309 1.309 7.974.706 11.089-.72 1.65-.755 2.55-1.344 2-1.308-.55.036-3.553.34-6.672.675M165 84.809c0 .445.624 1.661 1.386 2.704 1.159 1.586 1.771 1.709 3.75.759l2.364-1.137-2.281-.067c-1.255-.038-2.541-.743-2.857-1.568-.603-1.572-2.362-2.086-2.362-.691M119 88.5c0 .825.436 1.5.969 1.5.532 0 .709-.675.393-1.5-.317-.825-.753-1.5-.969-1.5-.216 0-.393.675-.393 1.5m21.346-.366c1.324.769 2.159.761 2.95-.03.805-.805.305-1.096-1.846-1.074-2.586.027-2.722.163-1.104 1.104m14.669.057c.009.72.452 1.984.985 2.809.788 1.219.972 1.09.985-.691.008-1.205-.435-2.469-.985-2.809-.55-.34-.993-.029-.985.691M194 93.059c0 .582.45.781 1 .441s1-.816 1-1.059-.45-.441-1-.441-1 .477-1 1.059m-59.25.603c.688.278 1.813.278 2.5 0 .688-.277.125-.504-1.25-.504s-1.937.227-1.25.504m54.854 4.748c.31.808-.236 1.672-1.282 2.025-1.933.653-5.831 5.389-5.065 6.155.249.249 1.53.022 2.848-.505 1.317-.527 2.02-.987 1.561-1.022-.459-.034.592-1.863 2.334-4.063 2.908-3.672 3-4 1.115-4-1.355 0-1.868.479-1.511 1.41M157 106.452c0 2.1 1.872 2.899 3.544 1.512 2.094-1.739 1.804-2.499-1.044-2.735-1.597-.132-2.5.31-2.5 1.223m-24 .989c0 .857.45 1.559 1 1.559s1-.423 1-.941-.45-1.219-1-1.559c-.55-.34-1 .084-1 .941m11 2.059c1.375.786 3.4 1.427 4.5 1.425 1.381-.002.959-.455-1.365-1.464-4.292-1.863-6.417-1.837-3.135.039m33.182 1c.626 1.375 1.527 2.5 2.002 2.5.474 0 .125-1.125-.776-2.5s-1.802-2.5-2.002-2.5c-.2 0 .149 1.125.776 2.5m7.277-1.433c-.601.971 2.113 3.825 3.709 3.901 1.959.093 3.832-1.41 3.832-3.075 0-1.491-.731-1.893-3.441-1.893-1.893 0-3.738.48-4.1 1.067m-19.31 3.253c-.909 1.096-.859 1.676.222 2.573 1.073.891 1.517.842 1.92-.208.866-2.257-.75-4.042-2.142-2.365m11.288 4.436c1.036 1.241 2.105 2.035 2.375 1.766.269-.27.985.119 1.589.863 1.297 1.599 9.599 3.795 9.599 2.539 0-.475-2.137-1.555-4.75-2.401-3.823-1.237-4.116-1.472-1.5-1.203 2.123.218 3.25-.103 3.25-.926 0-1.662-4.288-3.029-4.789-1.527-.506 1.517-4.459 1.443-6.234-.117-.783-.687-.576-.235.46 1.006m-44.978.311c-.363.586-.445 1.281-.183 1.543s.743-.218 1.069-1.067c.676-1.762.1-2.072-.886-.476m3.76 1.27c-1.255.697-2.02 1.528-1.701 1.848.715.714 5.463-1.397 5.474-2.435.011-1.057-1.131-.88-3.773.587m40.488 3.593c1.215 1.002 1.966 2.064 1.669 2.36-1.142 1.142 1.745 4.571 5.495 6.526l3.923 2.044.506-2.649c.279-1.461-.123-3.548-.897-4.653-.772-1.101-1.403-1.623-1.403-1.158 0 .465-.566.375-1.258-.199-.692-.574-3.279-1.73-5.75-2.568-4.385-1.489-4.439-1.481-2.285.297m-46.356 1.541c.31.809-.2 2.235-1.135 3.17-1.101 1.101-1.299 1.831-.563 2.077.624.208.935 1.369.691 2.58l-.444 2.202 1.64-2.202c1.378-1.85 1.946-2.012 3.55-1.01 1.408.879 2.374.903 3.674.091.971-.606 3.267-.881 5.102-.612 2.259.332 2.91.754 2.014 1.307-.727.449-1.11 1.026-.851 1.282.259.256 1.821-.618 3.471-1.941l3-2.405-7-.019c-3.85-.01-8.023-.292-9.273-.627-2.133-.572-2.164-.693-.5-1.955 1.677-1.273 1.679-1.347.023-1.377-.963-.018-1.75-.482-1.75-1.032s-.498-1-1.107-1-.853.662-.542 1.471m35.649-.76c0 .574.787 1.662 1.75 2.417 1.619 1.269 1.64 1.222.283-.628-.807-1.1-1.594-2.187-1.75-2.417-.156-.229-.283.054-.283.628m-14 1.682c0 .216.698.661 1.552.989.89.341 1.291.173.941-.393-.587-.951-2.493-1.406-2.493-.596m18.574 1.274c-.352.917-.175 2.132.393 2.7.711.711 1.033.19 1.033-1.667 0-3.085-.499-3.447-1.426-1.033m13.12.972c-.799.799.104 2.361 1.365 2.361.518 0 .941-.675.941-1.5 0-1.546-1.18-1.987-2.306-.861m9.306 3.326c0 .53.961 1.479 2.135 2.107 1.706.913 1.857 1.319.75 2.02-1.14.722-1.11.88.165.893 1.591.015 3.95-1.831 3.95-3.091 0-.389-.895-.473-1.988-.187-1.261.33-2.214-.07-2.607-1.094-.671-1.749-2.405-2.216-2.405-.648m-68.118 3.785a5.724 5.724 0 00.006 1.519c.068.422-1.003 1.282-2.382 1.91-1.378.628-2.506 1.76-2.506 2.515 0 .756-1.575 2.303-3.5 3.439-1.925 1.135-3.5 2.695-3.5 3.466 0 1.615 1.59 1.874 2.497.406.338-.547 1.602-1.471 2.809-2.055 1.99-.962 2.031-.929.444.355-1.78 1.44-2.362 3.633-1 3.772.412.042 1.65.307 2.75.589s3.575.763 5.5 1.067c2.95.467 3.185.678 1.5 1.34-1.356.533-.187.809 3.633.857 4.825.06 5.709-.217 6.157-1.93.603-2.308-2.082-2.808-4.123-.767-.977.977-1.354.769-1.816-1-.322-1.228-1.034-2.233-1.584-2.233s-.765-.901-.477-2.001c.288-1.101.138-1.764-.333-1.472-.471.291-1.329-.354-1.907-1.433-1.421-2.656-1.321-3.412.367-2.764a1.534 1.534 0 001.969-.893c.783-2.04 5.992-1.782 7.961.394.912 1.007 1.356 2.132.989 2.5-.368.368-.116.669.56.669s1.15.787 1.052 1.75c-.338 3.324.062 3.392 2.552.432 2.645-3.143 3.348-7.992 1.25-8.617-.687-.205-2.15-.709-3.25-1.12-3.198-1.195-4.811-1.372-5.943-.653-1.614 1.025-6.513 1.088-7.129.092-.666-1.078-2.383-1.168-2.546-.134m67.118.809c0 .857.457 1.276 1.016.931.559-.346.758-1.047.441-1.559-.857-1.387-1.457-1.129-1.457.628m-52.682 2.91c.577 1.758 4.682 1.856 4.682.112 0-1.053-.815-1.491-2.51-1.351-1.381.114-2.358.672-2.172 1.239M195.5 141c-.34.55.11 1 1 1s1.34-.45 1-1c-.34-.55-.79-1-1-1-.21 0-.66.45-1 1m-62.5 1c-.825.533-1.05.969-.5.969s1.675-.436 2.5-.969c.825-.533 1.05-.969.5-.969s-1.675.436-2.5.969m64.915 4.158c-1.466 2.741.58 3.008 2.869.375 2.069-2.38 2.07-2.398.069-2.247-1.109.084-2.431.926-2.938 1.872m-1.276 5.536c-1.126 1.126-.685 2.306.861 2.306.825 0 1.5-.423 1.5-.941 0-1.261-1.562-2.164-2.361-1.365M117 155.5c0 .825.45 1.5 1 1.5s1-.675 1-1.5-.45-1.5-1-1.5-1 .675-1 1.5m13.452 3.04c-1.546 1.084-2.868 1.201-5.391.477-3.312-.949-6.448-.148-6.016 1.537.386 1.501-3.233 3.135-3.757 1.696-.954-2.623-2.276-1.093-2.037 2.36.197 2.859 1.07 4.261 4.199 6.742 2.894 2.296 3.762 2.642 3.246 1.298-1.639-4.271-1.848-6.762-.685-8.163 1.504-1.813 6.256-1.936 9.133-.237 1.694 1 2.208 1 2.57 0 .249-.687 1.263-1.25 2.253-1.25.99 0 2.038-.911 2.329-2.024.316-1.208.061-1.966-.633-1.881-2.481.303-3.755-.138-3.163-1.095.803-1.299.44-1.203-2.048.54m2.165 12.124c-.461 1.431-2.399 2.776-5.717 3.969-4.185 1.505-4.761 1.995-3.46 2.947.858.627 1.56 1.841 1.56 2.697 0 .856.563 1.789 1.25 2.072.757.313.363.786-1 1.2-2.814.856-2.865 2.051-.15 3.504 1.408.754 1.963 1.836 1.686 3.286-.318 1.664.098 2.193 1.809 2.3 1.884.117 2.198-.34 2.064-3-.118-2.331-.59-3.068-1.834-2.862-2.659.439-2.972-1.321-.739-4.159 1.133-1.44 1.576-2.618.987-2.618-2.172 0-.982-3.43 2.075-5.983 1.779-1.485 2.935-3.256 2.657-4.072-.354-1.039-.687-.837-1.188.719M123 173c-1.293.835-1.266.971.191.985.93.008 1.969-.435 2.309-.985.782-1.266-.542-1.266-2.5 0m-9.67 3.418c.369.96.67 2.127.67 2.592 0 1.029 2.863 3.99 3.857 3.99.393 0 .714-.9.714-2 0-1.253-.666-2-1.785-2-.982 0-1.786-.648-1.786-1.441s-.526-1.766-1.17-2.164c-.798-.493-.957-.168-.5 1.023m80.17 1.542c-1.858.762-1.801.898.815 1.93 1.548.61 3.798 1.074 5 1.031 1.202-.043 1.623-.306.935-.583-.687-.278-1.25-1.142-1.25-1.921 0-1.547-2.36-1.743-5.5-.457m8.01.056c.346.559 1.047.758 1.559.441 1.387-.857 1.129-1.457-.628-1.457-.857 0-1.276.457-.931 1.016m-87.76 10.646c1.805.729 1.589 5.338-.25 5.338-3.477 0-1.009 2.992 6 7.274 4.125 2.521 7.5 4.106 7.5 3.522 0-.584.972-1.905 2.16-2.935 1.189-1.031 1.853-2.181 1.477-2.557-.376-.376-1.373.302-2.217 1.506-1.656 2.365-3.42 2.898-3.42 1.034 0-.635-1.125-2.63-2.5-4.433s-2.5-3.725-2.5-4.272c0-1.27-4.913-5.164-6.385-5.06-.679.048-.626.276.135.583m74.337 3.284c-.867.536-.77 1.072.366 2.015 1.048.87 1.547.922 1.547.161 0-1.861 1.994-1.259 2.079.628.047 1.045.282 1.247.583.5.278-.687 1.217-1.25 2.088-1.25 2.23 0 1.059-.908-2.48-1.923-1.651-.473-3.534-.532-4.183-.131m9.413.054c.34.55 1.041 1 1.559 1s.941-.45.941-1-.702-1-1.559-1-1.281.45-.941 1m4 0c.34.55.816 1 1.059 1s.441-.45.441-1-.477-1-1.059-1-.781.45-.441 1M113 202.449c0 .871 1.54 2.318 3.422 3.215 1.882.898 3.642 2.474 3.911 3.503.421 1.61.84 1.711 2.999.728 3.17-1.445 2.57-3.03-2.128-5.622-5.698-3.144-8.204-3.701-8.204-1.824M128 208c0 .55.45 1 1 1s1-.45 1-1-.45-1-1-1-1 .45-1 1m80.192 1.075c.197.591.786 1.075 1.308 1.075s1.111-.484 1.308-1.075c.197-.591-.391-1.075-1.308-1.075s-1.505.484-1.308 1.075M200 210c0 .55.45 1 1 1s1-.45 1-1-.45-1-1-1-1 .45-1 1m-87.187.683c.721.289 1.584.253 1.916-.079.332-.332-.258-.568-1.312-.525-1.165.048-1.402.285-.604.604m68.613 1.398c-.955 1.056-2.566 1.919-3.581 1.919-1.121 0-1.814.687-1.766 1.75.047 1.045.282 1.247.583.5.278-.687.965-1.25 1.528-1.25.563 0 .786.619.496 1.376-.31.809.469 1.829 1.893 2.478 1.332.607 2.421 1.788 2.421 2.625 0 1.94 1.399 1.95 3 .021.685-.825 1.865-1.5 2.622-1.5.758 0 1.378-.45 1.378-1s-1.125-1-2.5-1c-1.797 0-2.5-.539-2.5-1.917 0-1.054.356-2.066.792-2.25.435-.183.022-1.084-.919-2.002-1.598-1.559-1.824-1.543-3.447.25m-74.045 1.63c-1.257.919-1.463 1.607-.706 2.364.757.757 1.858.336 3.782-1.448 2.423-2.245 2.499-2.499.706-2.364-1.105.083-2.807.735-3.782 1.448m10.024 2.435c-1.895 2.134-1.893 2.139.345.964 1.237-.649 2.25-1.615 2.25-2.145 0-1.421-.479-1.203-2.595 1.181m63.787-1.071c.197.591.786 1.075 1.308 1.075s1.111-.484 1.308-1.075c.197-.591-.391-1.075-1.308-1.075s-1.505.484-1.308 1.075m-28.649.856a1.086 1.086 0 00.336 1.494c.501.31 1.169-.109 1.485-.931.622-1.62-.881-2.085-1.821-.563m11.457.128c0 .582.45.781 1 .441s1-.816 1-1.059-.45-.441-1-.441-1 .477-1 1.059m51.523-.185c-2.766.592-2.605.714 2.25 1.709 2.875.589 5.227.861 5.227.604 0-.607-3.349-3.15-4-3.037-.275.048-1.84.374-3.477.724m-13.947 1.788c-.275.717-1.12 1.066-1.878.776-.758-.291-1.955.166-2.66 1.016-1.489 1.795-1.093 1.898 2.312.603 1.868-.71 2.613-.595 3.021.468.298.776.05 1.715-.551 2.086-.692.428-.253 1.308 1.2 2.404 1.508 1.138 2.07 2.307 1.643 3.42-.357.931-1.075 1.429-1.595 1.107-.521-.322-.878.324-.795 1.436.174 2.301 1.727 2.798 1.727.553 0-.807.563-1.331 1.25-1.164.688.168.91.116.494-.116-.416-.232-.437-.938-.048-1.569 1.125-1.819 1.145-5.068.041-6.451-.712-.892-.513-1.821.671-3.129 1.604-1.772 1.54-1.883-1.323-2.303-1.896-.278-3.193.041-3.509.863m-32.134.432c-.308.498.329.906 1.416.906 1.086 0 2.202.563 2.48 1.25.32.793.533.653.583-.383.086-1.786-3.576-3.235-4.479-1.773M155 219c0 .55.45 1 1 1s1-.45 1-1-.45-1-1-1-1 .45-1 1m3.7.339c-.28.73.123 1.328.895 1.328 1.575 0 1.879-1.256.51-2.102-.493-.305-1.125.044-1.405.774m43.8-.339c.34.55.816 1 1.059 1s.441-.45.441-1-.477-1-1.059-1-.781.45-.441 1m-83.5.378c0 .207.685.946 1.523 1.641 1.273 1.057 1.42.995.893-.378-.538-1.401-2.416-2.384-2.416-1.263M166 221c0 .55.477 1 1.059 1s.781-.45.441-1-.816-1-1.059-1-.441.45-.441 1m40-.038c0 .605.675 1.36 1.5 1.676.825.317 1.5 1.454 1.5 2.528s-.408 1.7-.907 1.392c-.498-.309-.679.309-.401 1.371.515 1.969 2.379 1.871 5.134-.27.937-.728 1.561-.651 2.125.262.609.985.975 1.008 1.537.099.406-.657.282-1.65-.274-2.206-1.304-1.304-5.46-.021-4.574 1.413.426.689.195.789-.637.275-1.029-.636-.941-1.074.415-2.066 1.496-1.094 1.525-1.368.223-2.097-.825-.462-1.418-1.289-1.32-1.839.098-.55-.833-1.144-2.071-1.32-1.238-.175-2.25.176-2.25.782m-107.89 2.671c1.128 1.358 7.89 1.602 7.89.284 0-.813-4.386-1.83-7.234-1.677-1.306.07-1.468.414-.656 1.393m40.503.55c.289.467.944.591 1.456.274 1.308-.808 1.161-1.124-.525-1.124-.801 0-1.22.383-.931.85m50.994 1.399c-1.746 4.551.065 6.889 3.036 3.918.825-.825 1.108-1.5.628-1.5-.479 0-1.424.553-2.1 1.229-.971.971-1.164.814-.921-.75.169-1.089.659-2.541 1.088-3.229.429-.687.352-1.25-.172-1.25s-1.225.712-1.559 1.582M115 226c0 .55.477 1 1.059 1s.781-.45.441-1-.816-1-1.059-1-.441.45-.441 1m10.079-.281c-.048.732-.764.955-1.796.559-1.525-.585-1.553-.478-.25.948 1.603 1.756 3.515.758 2.658-1.388-.367-.921-.558-.958-.612-.119M159.5 226c.34.55.816 1 1.059 1s.441-.45.441-1-.477-1-1.059-1-.781.45-.441 1m35.959 2.067c-1.076 1.741.149 2.11 1.521.457.789-.95.865-1.524.201-1.524-.584 0-1.36.48-1.722 1.067m27.541-.674c0 .216.698.661 1.552.989.89.341 1.291.173.941-.393-.587-.951-2.493-1.406-2.493-.596m-109.457 1.538c-.317.512-.118 1.213.441 1.559.559.345 1.016-.074 1.016-.931 0-1.757-.6-2.015-1.457-.628m-9.464 1.652c.048 1.165.285 1.402.604.605.289-.722.253-1.585-.079-1.917-.332-.332-.568.258-.525 1.312M221.5 230c.34.55 1.068 1 1.618 1s.722-.45.382-1c-.34-.55-1.068-1-1.618-1s-.722.45-.382 1m-57 1c.34.55 1.041 1 1.559 1s.941-.45.941-1-.702-1-1.559-1-1.281.45-.941 1m31.942.094c-.308.498-.12.906.417.906.538 0 1.689.273 2.559.607.87.334 1.582.161 1.582-.383 0-1.325-3.848-2.279-4.558-1.13m33.293 1.299c.345 1.806-.307 2.801-2.895 4.413-3.578 2.229-6.554 6.108-4.848 6.319.554.069 1.458.238 2.008.375s1.477.306 2.059.375c.582.069.746.688.362 1.375-.383.688.212.35 1.321-.75 2.142-2.123 4.007-12.919 2.404-13.91-.471-.291-.656.52-.411 1.803M93.5 232c-.34.55-.141 1 .441 1S95 232.55 95 232s-.198-1-.441-1-.719.45-1.059 1m91.5-.028c0 1.356 1.777 2.198 2.425 1.149.31-.501-.109-1.169-.931-1.485-.822-.315-1.494-.164-1.494.336m26-.17c0 .629-.78.884-1.75.572-1.463-.47-1.505-.39-.258.49 1.564 1.104 3.961-.244 2.691-1.514-.375-.376-.683-.172-.683.452m-61.831 1.901c.582.701 1.457 1.028 1.944.727 1.528-.944.97-2.001-1.058-2.001-1.462 0-1.682.316-.886 1.274m43.396-.808c-.305.493.096 1.145.89 1.449.963.37 1.258.072.887-.895-.645-1.68-1.011-1.794-1.777-.554M132 233.44c0 .173.622.832 1.383 1.463 1.055.875 1.504.834 1.89-.173.302-.785-.259-1.379-1.383-1.463-1.039-.079-1.89-.001-1.89.173m65.5.56c-.34.55-.141 1 .441 1s1.059-.45 1.059-1-.198-1-.441-1-.719.45-1.059 1m-67.917.866c-.431.697-.513 1.537-.183 1.867.895.895 1.871-.421 1.387-1.871-.338-1.016-.574-1.016-1.204.004m13.981.427c.376.986.935 1.541 1.243 1.233.308-.307.001-1.114-.683-1.793-.988-.98-1.102-.865-.56.56m13.165-.161c-.989.553-1.716 2.124-1.699 3.668.029 2.511.108 2.56 1.125.7.601-1.1 1.74-2.519 2.529-3.154 1.864-1.498.294-2.473-1.955-1.214m24.521 1.475c0 1.667.282 2.15.782 1.34.431-.696.551-1.869.268-2.606-.763-1.99-1.05-1.644-1.05 1.266m-61.719-.657c-.368.595-1.201.784-1.85.42-.796-.447-.774-.225.069.683.962 1.037 1.522 1.075 2.433.164.651-.651.921-1.446.6-1.767-.32-.321-.884-.096-1.252.5m32.469.109c0 .582.45.781 1 .441s1-.816 1-1.059-.45-.441-1-.441-1 .477-1 1.059m60-.666c0 .216.698.661 1.552.989.89.341 1.291.173.941-.393-.587-.951-2.493-1.406-2.493-.596m-86.987 1.578c-1.179.745-1.037.907.68.777 1.193-.09 1.948-.52 1.679-.956-.599-.969-.537-.973-2.359.179m14.497.045c.346.559 1.047.758 1.559.441 1.387-.857 1.129-1.457-.628-1.457-.857 0-1.276.457-.931 1.016m7.49.484c0 .825.177 1.5.393 1.5.216 0 .652-.675.969-1.5.316-.825.139-1.5-.393-1.5-.533 0-.969.675-.969 1.5m14.02 1.024c.696.838 1.471 1.318 1.723 1.067.693-.694-.716-2.591-1.924-2.591-.664 0-.588.574.201 1.524m29.272.226c-.356.963-1.129 2.112-1.719 2.554-.639.479-.298.681.845.5 1.166-.185 1.982-1.185 2.082-2.554.198-2.692-.32-2.907-1.208-.5m18.521-1.067c.721.289 1.584.253 1.916-.079.332-.332-.258-.568-1.312-.525-1.165.048-1.402.285-.604.604m-88.249 2.024c-.542 1.425-.428 1.54.56.56.684-.679.991-1.486.683-1.793-.308-.308-.867.247-1.243 1.233m48.946-.691c.346.559 1.047.758 1.559.441.512-.316.938.464.946 1.734.013 1.905.201 2.047 1.076.809.799-1.129 1.187-1.191 1.568-.25.693 1.707 2.411 1.595 1.755-.115-.523-1.361-4.601-3.635-6.52-3.635-.557 0-.729.457-.384 1.016m14.648.984c0 1.375.227 1.938.504 1.25.278-.687.278-1.812 0-2.5-.277-.687-.504-.125-.504 1.25M91.5 241c.34.55.816 1 1.059 1s.441-.45.441-1-.477-1-1.059-1-.781.45-.441 1m60.5.059c0 .582.45.781 1 .441s1-.816 1-1.059-.45-.441-1-.441-1 .477-1 1.059m26-.059c0 .55.477 1 1.059 1s.781-.45.441-1-.816-1-1.059-1-.441.45-.441 1m-89 1.39c0 1.671 3.234 4.609 5.079 4.614.781.002 2.771.826 4.421 1.83 3.168 1.929 11.025 2.824 9.982 1.137-.33-.534-1.392-.971-2.36-.971-3.77 0-12.479-3.266-14.742-5.529-1.398-1.398-2.38-1.844-2.38-1.081m21.084 9.009c-.991 1.194-.844 1.351.851.908 1.128-.295 4.866-.052 8.307.539 7.069 1.215 35.564 2.665 34.688 1.766-.314-.322-5.039-.839-10.5-1.149-11.03-.625-28.052-2.321-30.539-3.042-.885-.256-2.148.184-2.807.978m91.416-.267c-2.75.368-10.821 1.01-17.935 1.428-7.555.443-12.106 1.066-10.94 1.497 2.117.783 6.391.618 23.541-.912 5.866-.523 11.491-1.42 12.5-1.993 1.729-.982 1.719-1.032-.166-.866-1.1.097-4.25.478-7 .846m-41.5 2.929l-5.5.613 7.191.163c3.955.09 7.399-.175 7.654-.587.573-.929-2.204-.985-9.345-.189" fill="#1976D2" fill-rule="evenodd"/><path fill-opacity=".217" d="M132 5.25c-2.424.989-2.363 1.063 2 2.433 2.475.778 6.267 1.644 8.426 1.925 2.159.28 4.717.933 5.684 1.451 2.332 1.248 2.893 1.187 2.873-.309-.01-.687-1.141-2.316-2.514-3.619-1.629-1.544-2.281-1.805-1.876-.75.367.956.113 1.619-.62 1.619-1.731 0-9.262-2.2-10.473-3.06-.55-.39-2.125-.251-3.5.31m-1.139 5.857c-1.036.657-.884.894.639.996 1.1.074 2.394.062 2.875-.026.481-.088 1.674.563 2.651 1.446 1.969 1.783 3.344.693 1.957-1.55-1.004-1.625-6.072-2.165-8.122-.866m19.401 2.883c-5.603 3.02-6.356 3.956-5.119 6.365.885 1.723.852 1.91-.166.949-.747-.704-2.506-.948-4.278-.594-2.138.428-2.803.267-2.295-.554.4-.648.139-1.163-.595-1.171-.966-.012-.924-.259.162-.946 2.299-1.454.607-2.209-2.392-1.069-1.485.565-2.421 1.477-2.08 2.028 1.574 2.547-.876 2.707-2.99.195C126.338 14.236 119 13.304 119 17.731c0 .733-.64 1.577-1.423 1.878-.782.3-1.707 1.288-2.055 2.195-.479 1.248-.072 1.135 1.672-.461 1.662-1.521 2.865-1.884 4.306-1.297l2 .813-2 .088c-1.1.048-3.009 1.152-4.243 2.454-2.021 2.132-2.086 2.496-.66 3.68 1.437 1.192 1.418 1.435-.198 2.616-2.124 1.553-1.885 1.59 2.387.364 2.694-.772 3.468-.628 4.369.816.934 1.496 1.923 1.642 6.711.992 4.45-.604 5.783-.46 6.428.691.604 1.081 1.295 1.195 2.694.447 1.034-.554 2.135-1.007 2.446-1.007.927 0 .643 1.994-.468 3.292-.569.664-1.671 2.108-2.45 3.208-1.361 1.922-1.396 1.902-.894-.5l.523-2.5-2.467 2.884c-2.2 2.572-2.785 2.775-5.393 1.865-2.147-.748-3.767-.666-6.089.311-2.532 1.064-3.416 1.08-4.43.079-2.239-2.212-4.798-2.72-5.427-1.079-.516 1.344-.78 1.351-2.213.057-1.203-1.087-2.537-1.255-5.126-.646-2.303.543-2.743.859-1.285.927 1.218.056 2.699 1.006 3.29 2.111.918 1.717.695 2.155-1.53 3-1.433.545-3.138 1.022-3.79 1.061-.652.038.904.712 3.456 1.498 3.644 1.122 4.786 2.004 5.312 4.102.369 1.47 1.543 3.781 2.609 5.136S117 59.922 117 60.718c0 2.978 2.472.493 2.735-2.749.449-5.54 2.246-5.991 1.99-.5-.272 5.822-2.502 7.948-5.495 5.239-2.395-2.167-4.044-2.157-6.634.042-1.855 1.575-1.929 1.579-.743.044 1.645-2.128 1.015-3.192-2.832-4.785-1.661-.688-3.021-1.679-3.021-2.202 0-.522-.675-.275-1.5.55-.825.825-1.5 2.573-1.5 3.884C100 63.62 95.073 67 90.147 67c-5.118 0-6.043-2.183-2.459-5.805 1.467-1.482 2.082-1.907 1.367-.945-1.552 2.09-.498 2.335 1.491.347 1.204-1.204 1.193-1.483-.072-1.968-.811-.312-1.474-1.255-1.474-2.098 0-.842-.413-1.531-.918-1.531-.505 0-1.653-.282-2.551-.626-1.338-.514-1.515-.159-.981 1.969.451 1.797-.02 3.681-1.531 6.126C81.178 65.448 80.276 66 77.252 66c-4.183 0-3.95.831.366 1.303 1.635.179 3.511.658 4.168 1.065.658.406 6.712 1.213 13.455 1.792 14.881 1.279 12.786 1.246 21.509.337 6.342-.661 7.25-.551 7.25.874 0 .896.675 1.629 1.5 1.629s1.5.597 1.5 1.327c0 .828-1.034 1.253-2.75 1.132-1.513-.107-1.995-.002-1.073.233 2.374.606 3.785 2.583 4.04 5.659.121 1.457.52 2.649.888 2.649.367 0 .866 1.35 1.108 3 .269 1.831-.002 3-.695 3-1.645 0-4.692-2.411-4.47-3.538.473-2.406-.173-4.129-1.548-4.129-1.928 0-2.063 6.232-.159 7.367.737.44 1.595 1.813 1.906 3.052l.567 2.252-2.812-2.002C120.456 91.901 118.76 91 118.233 91c-.527 0-.834-1.125-.684-2.5.151-1.375-.135-2.5-.637-2.5s-.943.563-.981 1.25c-.038.688-.229 2.46-.425 3.94-.266 2.004.007 2.55 1.069 2.143 1.83-.702 1.818.661-.03 3.3-1.379 1.967-1.245 2.14 2.52 3.268 4.136 1.24 6.453.746 5.295-1.128-.439-.71.076-.892 1.484-.524 1.507.394 2.156.108 2.156-.95 0-.91-.577-1.292-1.449-.957-.969.372-1.265.076-.893-.893.721-1.88 1.01-1.836 3.572.551 1.181 1.1 2.936 2 3.9 2 1.777 0 3.159 1.479 3.503 3.75.244 1.605-2.336 1.642-2.869.042-.221-.664-2.073-1.263-4.114-1.331-3.89-.129-3.678 1.263.309 2.031 4.401.848 3.352 1.504-1.543.965l-4.916-.54 3.274 2.041c3.755 2.342 4.899 2.523 5.453.862.477-1.433 3.773-.348 3.773 1.242 0 .619-.869 1.352-1.93 1.63-2.39.625-2.321 4.094.097 4.861.958.304 2.982-.258 4.499-1.25 1.535-1.004 2.404-1.231 1.961-.512-.437.709-2.524 2.381-4.637 3.715-4.504 2.843-5.573 6.42-2.418 8.092 1.14.604 4.681.977 7.87.828 4.874-.227 6.137.08 7.928 1.931 1.171 1.211 3.368 2.742 4.88 3.401 1.512.66 2.75 1.729 2.75 2.376 0 .754-.628.614-1.75-.389-.963-.86-2.644-1.718-3.736-1.905-1.602-.274-2.154.435-2.853 3.66-.975 4.497-3.314 9.496-5.149 11.004-.671.552-1.534 1.991-1.918 3.199-.427 1.348-1.243 1.985-2.114 1.651-.779-.299-1.378-.839-1.33-1.199.048-.36.034-1.667-.032-2.905-.162-3.091-3.851-3.091-4.322 0-.189 1.237-.82 2.163-1.403 2.056-.583-.107-1.06.457-1.06 1.254 0 1.249.219 1.254 1.584.038 1.336-1.191 1.778-1.198 2.833-.047.688.751 1.25 1.889 1.25 2.529 0 .853.354.871 1.324.066.966-.802 1.641-.781 2.5.078.901.901 1.176.882 1.176-.083 0-.692.355-1.04.788-.772.752.465 1.353-.697 4.236-8.19 1.312-3.411 2.159-3.581 7.547-1.513 1.138.436 1.52.291 1.086-.412-.803-1.299.998-6.423 2.606-7.416.728-.451-.378-2.088-3.078-4.556-3.413-3.12-3.974-4.098-2.95-5.142 1.024-1.044.693-1.75-1.735-3.71l-3-2.42 2.75-.005c1.512-.003 2.75-.422 2.75-.932 0-1.189-4.91-5.073-6.412-5.073-.629 0-2.189-.733-3.467-1.628-1.712-1.199-1.991-1.834-1.061-2.409.72-.445 1.871-.175 2.674.628 1.853 1.853 3.354 1.801 2.628-.091-.393-1.023.055-1.5 1.409-1.5 1.091 0 2.544.675 3.229 1.5 1.476 1.778-.065 2.035-1.8.3-.933-.933-1.2-.875-1.2.263 0 .804 1.011 1.907 2.246 2.45 1.235.543 2.834 2.224 3.554 3.737 1.287 2.703 2.626 3.479 3.453 2 .23-.413.29-.209.133.453-.158.661 1.034 2.314 2.648 3.672s2.465 2.625 1.893 2.816c-.573.191-.744 1.123-.379 2.072.364.949.982 1.527 1.375 1.285.392-.243 1.868 1.915 3.281 4.795 2.497 5.093 2.78 7.982 1.251 12.8-.621 1.955-.508 2.146.684 1.156 1.914-1.588 3.481-.452 5.264 3.816.815 1.949 2.182 4.126 3.039 4.837.857.711 1.558 1.89 1.558 2.619 0 2.004 4.767 6.732 6.223 6.174.702-.27 1.502-.535 1.777-.59.275-.055 2.75-.783 5.5-1.617 6.081-1.844 5.995-1.84 4.68-.254-.625.753-.713 1.854-.211 2.665.672 1.088 1.517.719 3.975-1.739 1.815-1.815 3.736-2.886 4.589-2.559 1.79.687 1.943-1.017.217-2.43-.857-.702-3.516-.633-8.463.221-3.966.685-6.977.866-6.691.402.287-.464 1.508-.88 2.713-.923 1.806-.065 1.664-.264-.809-1.13-3.502-1.228-6.507-3.635-6.485-5.196.009-.602.452-.42.985.405 1.342 2.076 1.34-.497-.003-3.005-1.378-2.575.604-3.666 2.895-1.593.971.879 2.293 1.598 2.937 1.598.644 0 1.171.402 1.171.893s.675 1.152 1.5 1.469c2.05.786 1.882.071-.508-2.154-1.902-1.773-1.923-2.04-.395-5.102 2.135-4.279 1.344-4.769-2.49-1.543l-3.144 2.646-3.315-2.528c-4.172-3.183-4.396-5.444-.481-4.87 1.558.229 2.833.719 2.833 1.09 0 .37.948.745 2.106.832 1.948.147 1.987.027.514-1.601-1.092-1.206-1.269-2.083-.564-2.788.705-.705.57-1.41-.43-2.239-1.185-.984-1.579-.828-2.105.83-.642 2.022-.683 2.023-4.335.159-2.027-1.035-4.543-2.829-5.591-3.988-1.914-2.116-3.599-2.753-3.59-1.356.002.412 1.449 2.292 3.215 4.176 3.005 3.207 5.015 7.955 2.783 6.576-.552-.341-1.003-1.217-1.003-1.946 0-1.374-4.519-4.821-6.799-5.186-2.414-.386-8.126-5.402-7.628-6.698.317-.828 2.227-1.248 5.353-1.177 3.378.077 4.721-.252 4.404-1.079-1.322-3.445 11.863 1.851 14.258 5.727.538.869.954.664 1.435-.708.777-2.215-1.4-4.343-4.523-4.422-1.1-.028-4.124-1.385-6.72-3.015-4.65-2.92-4.713-3.03-4.268-7.426.248-2.454.572-4.997.72-5.652.486-2.157 4.644-6.114 5.724-5.447.582.359 1.309 0 1.616-.799.345-.899 1.343-1.247 2.619-.914 1.305.342 2.401-.066 2.985-1.11.508-.908 1.549-1.65 2.315-1.65.765 0 1.666-.445 2.002-.989.698-1.13-2.304-.234-4.243 1.267-1.183.915-1.683.294-1.328-1.651.088-.48-.534-.606-1.381-.281-.848.325-1.541.107-1.541-.484 0-.592-.675-.817-1.5-.5-.825.316-1.5.153-1.5-.362s-.787-.684-1.75-.374c-1.169.376-1.348.271-.539-.317 1.17-.849 3.315-5.405 4.737-10.059.509-1.669.282-2.25-.881-2.25A1.568 1.568 0 01181 78.441c0-.857-.48-1.262-1.067-.9-.586.363-1.697-.173-2.468-1.191-1.801-2.377-1.927-6.465-.179-5.794.731.281 1.336-.272 1.403-1.281.064-.976.466-2.895.893-4.264.666-2.135.31-1.957-2.507 1.25C175.27 68.318 173.04 70 172.119 70c-.921 0-2.699.718-3.951 1.595-3.108 2.177-7.173 1.118-7.154-1.864.03-4.932 1.117-6.731 4.067-6.731 1.825 0 3.233-.719 3.919-2 .961-1.796.76-2-1.965-2-3.648 0-3.777-1.16-.725-6.5 3.467-6.065 3.887-7.513 1.965-6.775-1.214.466-1.461.201-.98-1.051.421-1.097.136-1.674-.826-1.674-.808 0-1.469.637-1.469 1.415s-1.389 5.053-3.088 9.5c-2.595 6.797-3.445 8.085-5.333 8.085-3.089 0-3.611-.785-2.487-3.742.53-1.394.739-2.76.464-3.035-.634-.634-2.606 4.48-3 7.777-.164 1.375-.104 1.971.132 1.325.543-1.484 8.305-1.229 8.309.272.002.603-.85 2.081-1.893 3.283-1.851 2.134-1.982 2.146-5.5.468-3.713-1.77-4.295-3.108-2.657-6.112.52-.955 1.659-4.032 2.531-6.837.871-2.806 2.278-5.956 3.127-7 1.476-1.815 1.52-1.789 1.019.601-.5 2.384-.457 2.41.926.559.797-1.068 1.45-2.461 1.45-3.095 0-.635.9-1.969 2-2.964 2.552-2.309 2.569-3.882.035-3.219-1.362.356-2.16-.099-2.599-1.484-.592-1.863-.862-1.776-4.035 1.299-4.227 4.097-4.465 2.88-.353-1.804 2.347-2.672 2.791-3.781 1.931-4.818-.825-.994-.814-1.913.042-3.512.637-1.192.936-3.02.663-4.063-.273-1.043-.131-2.123.316-2.399.783-.484.201-4.5-.652-4.5-.23 0-1.415.628-2.633 1.396-3.272 2.062-6.715 2.919-6.715 1.671 0-.587.639-1.067 1.419-1.067 1.121 0 5.409-1.893 8.499-3.752.591-.355-2.131-5.274-2.837-5.125-.32.067-2.038.907-3.819 1.867m-28.606 2.555c.304.794.956 1.195 1.449.89 1.24-.766 1.126-1.132-.554-1.777-.967-.371-1.265-.076-.895.887m3.229 1.122c-.064.458-.22 1.283-.348 1.833-.128.55-.301 1.803-.385 2.785-.123 1.445-.52 1.588-2.086.75-2.613-1.398-3.382-1.302-2.751.343.291.758.001 1.949-.643 2.647-.879.952-.881 1.105-.007.615.64-.359 1.428-.087 1.75.604.467 1.003.703 1.004 1.168.006.321-.687 1.205-1.25 1.965-1.25s1.875-.922 2.478-2.048c.792-1.481 1.702-1.878 3.285-1.435 1.204.338 1.739.247 1.189-.201-.55-.449-1.482-1.689-2.071-2.756-1.151-2.084-3.355-3.261-3.544-1.893m25.049 8.005c-.558 1.47-.786 3.27-.506 4 .635 1.655 3.771 1.729 5.372.128 1.763-1.763 1.467-2.8-.8-2.8-2.188 0-2.757-2.528-.75-3.338.738-.297.522-.536-.525-.583-1.045-.047-2.192 1.019-2.791 2.593M136 26.9c-3.465.462-4.057.781-2.576 1.385 2.24.915 10.346-.104 11.147-1.4.584-.946-1.39-.942-8.571.015m7.923 2.85c-.111 1.092-.717 4.255-1.378 7.191-.551 2.449-.511 2.476.94.618C144.869 35.785 145.674 29 144.5 29c-.275 0-.534.337-.577.75m2.677.85c-.356.927-.422 1.911-.147 2.186.275.275.791-.259 1.147-1.186.356-.927.422-1.911.147-2.186-.275-.275-.791.259-1.147 1.186M109 33.972c0 1.356 1.777 2.198 2.425 1.149.31-.501-.109-1.169-.931-1.485-.822-.315-1.494-.164-1.494.336m6.695 1.971c.296 1.131.969 2.057 1.495 2.057 1.328 0 .577-3.245-.861-3.724-.745-.248-.976.358-.634 1.667m36.353-.994c-.799.506-1.924.652-2.5.325-.577-.327-.701-.213-.278.253.424.466-.897 2.555-2.935 4.642-2.038 2.087-3.467 4.032-3.177 4.323.917.916 9.555-6.288 10.118-8.438.295-1.13.466-2.047.38-2.039-.086.009-.81.429-1.608.934M126 35.882c0 .55.45 1.278 1 1.618.55.34 1 .168 1-.382s-.45-1.278-1-1.618c-.55-.34-1-.168-1 .382m13.964 8.282c-1.145 2.233-1.118 2.26.61.61.994-.95 1.533-2.001 1.197-2.336-.335-.335-1.148.442-1.807 1.726m13.183-.584c-1.845.776-3.652 1.226-4.017 1-.365-.225-2.231.89-4.147 2.478-3.446 2.858-3.457 2.89-.983 3.074 4.867.36 6.414-.213 9.855-3.654 1.913-1.913 3.291-3.665 3.062-3.893-.229-.229-1.926.219-3.77.995m4.817.584c-1.145 2.233-1.118 2.26.61.61.994-.95 1.533-2.001 1.197-2.336-.335-.335-1.148.442-1.807 1.726m-128.996.775c1.181 2.207.041 3.385-2.378 2.457-1.758-.675-2.204 2.088-.715 4.436.973 1.535 28.942 5.273 29.744 3.975.275-.444 1.26-.793 2.19-.775 1.518.028 1.531.156.129 1.25-2.207 1.721-3.049 4.385-1.387 4.385.749 0 1.129-.375.846-.834-.283-.458-.151-.866.294-.907.445-.041 1.934-.265 3.309-.497l2.5-.422-2.386 1.853c-3.187 2.476-.96 3.924 2.524 1.641 2.471-1.619 2.53-1.606 1.889.414-.937 2.951 2.769 2.82 4.692-.165 4.326-6.714 4.094-13.853-.441-13.611-1.253.067-4.303-.36-6.778-.948-2.475-.588-5.175-1.026-6-.973-4.17.269-7.064-.305-6.461-1.282.449-.725-.567-.838-3.191-.356-2.116.388-3.964.991-4.107 1.339-.373.913-8.241.025-8.241-.93 0-.441-.849-.58-1.887-.308-1.038.271-2.19.004-2.559-.594-1.228-1.987-2.687-1.203-1.586.852m87.032.435c3.656 1.318 5.436 1.141 4.457-.443-.316-.512-2.236-.906-4.266-.875l-3.691.057 3.5 1.261m-42.968 1.254c-.018.62.631 1.677 1.442 2.35 1.732 1.438 2.967 7.056 2.13 9.694-.322 1.015-1.573 2.292-2.78 2.837-1.207.545-2.389 1.598-2.626 2.34-.301.942.412.797 2.359-.478 2.029-1.33 2.902-1.493 3.2-.6.63 1.889 1.949 1.46 2.548-.828.43-1.644.265-1.831-.818-.932-1.123.932-1.261.202-.802-4.248.493-4.778.268-5.699-2.034-8.318-1.423-1.62-2.602-2.438-2.619-1.817m91.039 4.943c-2.845 6.054-2.107 6.793.858.858 1.251-2.507 2.062-4.771 1.802-5.032-.261-.261-1.458 1.618-2.66 4.174m-65.459-.04c.913 1.392 1.854 2.336 2.093 2.098.593-.594-1.995-4.629-2.969-4.629-.43 0-.036 1.139.876 2.531M104 50c0 .55.423 1 .941 1s1.219-.45 1.559-1c.34-.55-.084-1-.941-1S104 49.45 104 50m46.233 1.284c-1.474.674-2.081 1.621-1.735 2.708.673 2.122-2.391 4.94-6.103 5.613-3.532.64-3.798.902-3.01 2.956.364.95 1.263 1.404 2.123 1.074 1.801-.691 1.917-.006.295 1.731-.658.705-2.233 1.083-3.5.841-2.42-.462-2.856.371-1.399 2.671.48.758 1.347 1.085 1.926.727 1.684-1.041 9.17-1.426 9.17-.472 0 .477.745.867 1.655.867 1.465 0 1.438-.24-.235-2.089-1.86-2.054-1.846-2.214.823-9.688 1.493-4.179 2.612-7.683 2.486-7.787-.126-.103-1.249.279-2.496.848m30.982-.813c.393.436.275 1.614-.263 2.618-.766 1.432-.521 2.071 1.13 2.955 1.731.926 1.996 1.725 1.482 4.464-.775 4.132.561 5.138 3.052 2.297 1.036-1.182 1.378-1.855.759-1.495-.721.419-1.356-.79-1.768-3.366-.354-2.211-1.307-4.275-2.119-4.587-.812-.312-1.247-.938-.966-1.393.281-.454-.059-1.154-.756-1.555-.696-.401-.944-.373-.551.062M67 53c0 .55.477 1 1.059 1s.781-.45.441-1-.816-1-1.059-1-.441.45-.441 1m39.015.059c.022 2.016 1.624 4.334 2.271 3.287.295-.478-.098-1.737-.875-2.798-.997-1.364-1.407-1.507-1.396-.489m37.235-.397c-2.127.858-1.379 2.088 1.269 2.088 2.023 0 2.294-.27 1.377-1.375-.627-.756-1.198-1.339-1.268-1.296-.071.043-.69.306-1.378.583M138 54.5c0 .825-.402 1.5-.893 1.5-1.19 0-2.268 2.931-1.521 4.139 1.045 1.691 3.105-.975 3.195-4.135.047-1.652-.11-3.004-.348-3.004s-.433.675-.433 1.5m39 2.5c0 .55.45 1 1 1s1-.45 1-1-.45-1-1-1-1 .45-1 1m-49.573.765c-.59.404-1.363 1.523-1.719 2.485-.498 1.351-.114 1.75 1.685 1.75 1.946 0 2.251-.412 1.852-2.5-.263-1.375-.538-2.493-.612-2.485-.073.009-.616.346-1.206.75m44.194 3.467c.527 4.372.994 5.487 1.912 4.568.799-.798-.661-8.8-1.605-8.8-.449 0-.587 1.905-.307 4.232m-77.438-2.015c-.651.65-1.183 1.795-1.183 2.542 0 .747-.399 1.112-.887.811-.487-.301-1.486.174-2.218 1.056-1.147 1.383-1.074 1.554.531 1.239 1.024-.201 2.78-1.595 3.901-3.099 2.089-2.8 1.983-4.676-.144-2.549M188 58.435c0 1.601 2.138 5.565 3.001 5.565.623 0 .418-1.222-.501-3-1.376-2.661-2.5-3.814-2.5-2.565m-56.9 1.902c-.057 1.049-1.322 2.298-2.952 2.913-2.607.984-2.762 1.313-1.811 3.833 1.697 4.495 8.663 4.11 8.663-.478 0-1.347-.38-1.472-1.934-.64-2.465 1.319-6.066 1.34-6.066.035 0-.55.787-1.007 1.75-1.015 2.918-.026 3.94-1.311 3.169-3.985-.507-1.761-.749-1.957-.819-.663M180.5 69c-.34.55-.168 1 .382 1s1.278-.45 1.618-1c.34-.55.168-1-.382-1s-1.278.45-1.618 1M143 70c0 .55.45 1 1 1s1-.45 1-1-.45-1-1-1-1 .45-1 1m46.5 1c-.602 1.898-1.59 2.403-4.117 2.105-1.697-.2-3.682 2.674-3.026 4.382.627 1.636 4.643 2.124 4.643.565 0-.522 1.125-2.163 2.5-3.647 2.517-2.715 3.297-5.405 1.567-5.405-.513 0-1.218.9-1.567 2m-51 1c-.782 1.266.542 1.266 2.5 0 1.293-.835 1.266-.971-.191-.985-.93-.008-1.969.435-2.309.985m13 1c-.34.55-.141 1 .441 1S153 73.55 153 73s-.198-1-.441-1-.719.45-1.059 1m21.906.849c.662 1.07-3.073 5.156-4.695 5.136-.768-.01-.672-.356.26-.946.809-.512 1.19-1.211.847-1.554-.343-.343-1.567-.034-2.721.686-1.625 1.015-2.519 1.047-3.97.141-1.535-.959-2.504-.74-5.388 1.22-2.854 1.939-5.519 2.557-14.146 3.28-9.766.818-13.766 1.859-10.988 2.86.607.219.894 1.499.637 2.844-.258 1.346-.184 3.58.164 4.966.499 1.986 1.262 2.518 3.613 2.518 2.69 0 2.984-.317 3.013-3.25.03-3.041.124-3.128 1.468-1.353.79 1.044 1.207 2.268.927 2.721-.641 1.037 4.105 2.289 5.472 1.444 1.688-1.043.17-3.217-2.189-3.137-1.679.057-2.157-.439-1.991-2.066.27-2.637-2.882-3.698-6.324-2.129-1.322.602-2.672.827-2.999.499-1.548-1.548 1.249-2.477 9.13-3.034 6.231-.439 9.54-1.191 12.034-2.732 1.892-1.169 3.454-1.752 3.472-1.295.017.458.68-.025 1.472-1.071 1.417-1.872 1.452-1.872 2.103 0 1.784 5.127 4.366 10.402 5.087 10.394 1.555-.018 11.306-6.042 11.306-6.984C179 81.316 174.63 73 173.742 73c-.473 0-.624.382-.336.849M133 75.059c0 .582.45.781 1 .441s1-.816 1-1.059-.45-.441-1-.441-1 .477-1 1.059M179 75c0 .55.45 1 1 1s1-.45 1-1-.45-1-1-1-1 .45-1 1m-58.921 3.583c.048 1.165.285 1.402.604.605.289-.722.253-1.585-.079-1.917-.332-.332-.568.258-.525 1.312M196.6 79.6c-.356.927-.422 1.911-.147 2.186.275.275.791-.259 1.147-1.186.356-.927.422-1.911.147-2.186-.275-.275-.791.259-1.147 1.186M160 82.882c0 .55.45 1.278 1 1.618.55.34 1 .168 1-.382s-.45-1.278-1-1.618c-.55-.34-1-.168-1 .382m-4.569 2.007c.439.709-.56 1.687-2.61 2.557l-3.321 1.409 2.5 1.009c1.755.708 1.978 1.028.75 1.073-.963.034-1.75.738-1.75 1.563 0 1.843 4.319 2.03 5.785.25 1.387-1.682.798-8.056-.793-8.586-.754-.251-.982.043-.561.725M148 86.717c0 .577-.945 1.297-2.101 1.599-1.155.302-1.806 1.025-1.447 1.607.416.672 1.426.337 2.778-.923 1.168-1.088 1.82-2.284 1.447-2.656-.372-.373-.677-.205-.677.373m10-.175c0 .298.465 1.086 1.034 1.75.569.664 1.731 2.108 2.582 3.208 1.363 1.762 1.478 1.782.966.168-.32-1.007-.582-2.695-.582-3.75 0-1.251-.695-1.918-2-1.918-1.1 0-2 .244-2 .542m14.51 3.442c-.335.541-2.049 1.401-3.809 1.91-3.036.878-3.065.93-.562 1.016 1.452.049 3.702-.795 5-1.877 1.299-1.081 1.825-1.981 1.17-2-.655-.018-1.465.41-1.799.951M194.5 90c-1.1.473-3.8.898-6 .945-2.967.064-3.613.336-2.5 1.055 2.248 1.453 6.274 1.197 8.779-.558 1.224-.857 2.643-1.299 3.154-.984.511.316 1.211.117 1.557-.442.75-1.213-2.183-1.222-4.99-.016m-58.767 1.124c.679.684 1.486.991 1.793.683.308-.308-.247-.867-1.233-1.243-1.425-.542-1.54-.428-.56.56m-6.168 1.771c-.305.493.119 1.153.941 1.469.907.348 1.494-.003 1.494-.895 0-1.618-1.563-1.986-2.435-.574m68.102-.228c-1.058 1.057-.781 2.075.72 2.651.973.374 1.236-.042.883-1.393-.559-2.139-.651-2.211-1.603-1.258M139 96.583l-2.5 1.388 2.75.014c1.784.01 2.75-.512 2.75-1.485 0-.825-.113-1.456-.25-1.402-.137.054-1.375.722-2.75 1.485m16.904.032c-1.16 1.398-1.086 1.566.545 1.25 1.037-.201 2.073-.927 2.301-1.615.594-1.784-1.26-1.546-2.846.365m-9.669.155c-2.632.433-2.016 2.23.765 2.23 1.97 0 3.588-1.593 2.266-2.232-.421-.204-1.785-.203-3.031.002m48.705.943c-2.384 1.628-4.755 4.643-3.88 4.932.242.08-.46 1.176-1.56 2.436l-2 2.291 3.618-2.186c1.99-1.202 3.911-2.186 4.269-2.186 1.368 0-.86 5.717-4.185 10.737-2.967 4.481-3.276 5.469-2.138 6.84 1.218 1.468 1.436 1.46 2.567-.087.725-.992 1.747-1.374 2.472-.926.87.537 1.041.255.578-.952-.414-1.079-.266-1.474.399-1.063.581.359.831 1.241.556 1.958-.276.718.328 2.055 1.341 2.972 1.723 1.56 1.909 1.55 2.887-.156.806-1.404.938-.788.579 2.677-.752 7.233-1.254 8.561-3.745 9.894l-2.356 1.261 2.579 2.672c4.604 4.771 5.642 5.326 5.809 3.105.082-1.081-.913-2.661-2.209-3.51-2.29-1.5-2.309-1.631-.689-4.517 1.109-1.977 2.254-2.825 3.418-2.532 2.138.537 2.152.305.198-3.473-.853-1.65-1.273-3.877-.932-4.949.466-1.47-.013-2.19-1.949-2.925-1.412-.537-2.567-1.239-2.567-1.56 0-.321.563-.243 1.25.175.688.417.029-.855-1.463-2.826-2.295-3.033-2.576-4.065-1.82-6.7.491-1.713.648-3.115.348-3.115-.3 0 .116-1.013.925-2.25 1.384-2.119 1.736-6.107.637-7.207-.274-.273-1.596.253-2.937 1.17m-25.656 3.308c-.415 1.588-.824 1.776-1.906.878-1.094-.908-1.378-.724-1.378.892 0 1.836.287 1.927 2.934.928 3.167-1.196 4.943-4.719 2.379-4.719-.825 0-1.738.909-2.029 2.021m-17.8 2.829c-.229.229 1.401 1.733 3.623 3.342 4.315 3.126 7.166 3.344 7.697.587.506-2.627-9.239-6.01-11.32-3.929m17.07 1.686c-1.327 1.003-1.621 1.797-.923 2.495.698.698 1.39.219 2.175-1.504 1.333-2.927 1.32-2.937-1.252-.991m-13.682 5.777c1.501 1.844 4.128 2.282 4.128.687 0-.55-.413-1-.918-1-.505 0-1.743-.309-2.75-.687-1.613-.605-1.668-.485-.46 1m8.878.852c-2.062 1.117-3.75 2.352-3.75 2.745 0 1.358 6.047 5.179 7.133 4.508.6-.371 1.44-.109 1.867.582.427.691 1.257.959 1.845.596 1.497-.926.191-3.824-1.442-3.197-1.819.698-2.829-1.181-1.498-2.785.593-.714.782-1.594.42-1.956-.362-.362-.107-.658.567-.658.674 0 .948-.45.608-1-.82-1.327-1.345-1.221-5.75 1.165m-38.075 2.494c-2.172 2.11-3.537 4.257-3.225 5.072.788 2.054-1.43 5.919-2.45 4.269-.57-.923-1.129-.618-2.042 1.115-.692 1.312-1.74 2.698-2.329 3.081-.589.382-.815.951-.503 1.264.313.312 1.702-.324 3.087-1.413 1.386-1.09 2.804-1.771 3.153-1.514.349.257.408.166.132-.202-.276-.368.199-1.444 1.056-2.391.858-.948 1.692-3.009 1.855-4.581.189-1.818 1.169-3.309 2.694-4.094 1.318-.68 1.947-1.256 1.397-1.282-.55-.026-.126-.707.941-1.515 1.068-.807 1.505-1.468.971-1.468-.534 0-2.665 1.646-4.737 3.659m4.487 1.884c-.639 1.403-1.144 3.092-1.123 3.754.022.662.704-.328 1.515-2.198 1.709-3.938 1.348-5.373-.392-1.556m6.838.525c-4.383 2.152-4.661 4.509-.5 4.233 9.107-.603 9.315-.678 9.045-3.253-.259-2.462-2.545-4.267-2.545-2.009 0 .803-.417.89-1.25.259-.824-.625-2.442-.363-4.75.77M127 123c0 1.1.408 2 .906 2 .499 0 .671-.9.384-2-.288-1.1-.696-2-.907-2-.21 0-.383.9-.383 2m30.083.283c.23.156 1.317.943 2.417 1.75 1.85 1.357 1.897 1.336.628-.283-.755-.963-1.843-1.75-2.417-1.75-.574 0-.857.127-.628.283m43.932 4.467c-.008 1.238.435 2.25.985 2.25 1.253 0 1.253-1.061 0-3-.784-1.213-.972-1.069-.985.75m-4.944.665c-.746.898-1.059 1.93-.697 2.292.934.934 2.932-1.29 2.452-2.729-.276-.828-.818-.693-1.755.437m-56.258 3.268c.721.289 1.584.253 1.916-.079.332-.332-.258-.568-1.312-.525-1.165.048-1.402.285-.604.604M116 136c-.726 1.356-.737 2-.035 2 1.975 0 1.006 1.509-2.107 3.281-1.721.98-2.885 2.026-2.586 2.324.89.89 6.728-2.548 6.728-3.962 0-.718 1.11-1.899 2.466-2.625 2.898-1.551 2.417-3.018-.99-3.018-1.382 0-2.861.851-3.476 2m56.158 0c0 1.375.227 1.938.504 1.25.278-.687.278-1.812 0-2.5-.277-.687-.504-.125-.504 1.25m2.842-.059c0 .518.45 1.219 1 1.559.55.34 1-.084 1-.941s-.45-1.559-1-1.559-1 .423-1 .941m24 .452c0 .216.675.652 1.5.969.825.316 1.5.139 1.5-.393 0-.533-.675-.969-1.5-.969s-1.5.177-1.5.393M176 141c0 .55.45 1 1 1s1-.45 1-1-.45-1-1-1-1 .45-1 1m28 3.409c0 .19.675.906 1.5 1.591.865.718 1.5.815 1.5.229 0-.558-.675-1.274-1.5-1.591-.825-.316-1.5-.419-1.5-.229m-93 5.032c0 .857.45 1.559 1 1.559s1-.423 1-.941-.45-1.219-1-1.559c-.55-.34-1 .084-1 .941m87.033.357c.064 1.347 4.022 5.48 4.649 4.854.347-.348-.564-1.74-2.025-3.094-1.461-1.355-2.642-2.146-2.624-1.76M176 150.826c0 .454 1.125 1.882 2.5 3.174 2.795 2.626 3.327 1.625.943-1.777-1.546-2.208-3.443-2.978-3.443-1.397m-55.793 4.134c.887 1.42 1.441 1.626 2.009.75.6-.926.991-.889 1.666.157 1.006 1.561 7.569 2.672 6.61 1.119-.336-.542.429-1.038 1.699-1.102 1.608-.081 1.794-.252.611-.563-.933-.246-2.543.005-3.577.558-1.451.777-2.257.564-3.542-.936-.915-1.069-2.797-1.943-4.182-1.943-2.251 0-2.388.208-1.294 1.96m17.293.04c-.349 1.1-1.129 2-1.734 2s-.823.276-.485.614c.337.338 1.747-.278 3.132-1.367 1.386-1.09 2.234-2.266 1.886-2.614-1.15-1.151-2.156-.66-2.799 1.367m-22.43 4.243c.511 1.784.93 3.414.93 3.623 0 .208.675-.181 1.5-.866 1.902-1.579 1.888-2.469-.071-4.429-2.48-2.479-3.369-1.848-2.359 1.672m23.597 1.424c-.956.955-.822 2.333.226 2.333.491 0 1.152-.675 1.469-1.5.585-1.524-.481-2.048-1.695-.833m-16.438 4.833c.19 2.289 1.771 3.702 1.771 1.582 0-.505.273-1.63.607-2.5.397-1.035.055-1.582-.989-1.582-1.09 0-1.53.791-1.389 2.5m81.771-.441c0 1.132-.422 1.798-.939 1.479-.516-.319-1.402.217-1.969 1.191-.938 1.611-1.034 1.619-1.062.08-.016-.93-.482-1.97-1.035-2.312-1.468-.908-9.887-1.13-9.341-.247.761 1.229-1.153.85-2.521-.5-1.016-1.001-1.522-.905-2.549.484-.705.954-1.575 1.442-1.933 1.084-.358-.358-.651.051-.651.908 0 2.385 3.051 3.076 4.595 1.041 1.184-1.56 1.345-1.576 1.373-.139.018.895.69 2.173 1.495 2.841 1.188.986 1.911.73 3.849-1.361 1.313-1.417 2.642-2.32 2.954-2.008.312.311-.295 1.429-1.349 2.483-2.811 2.811-2.381 3.663 2.063 4.086 2.782.266 4.143-.046 4.523-1.038.299-.779.818-1.144 1.152-.809.334.334 1.359.206 2.277-.285 2.287-1.225 2.814-9.037.609-9.037-.889 0-1.541.871-1.541 2.059m-68 .441c0 .825.177 1.5.393 1.5.216 0 .652-.675.969-1.5.316-.825.139-1.5-.393-1.5-.533 0-.969.675-.969 1.5m72.03 5.05c.027 2.586.163 2.722 1.104 1.104.769-1.324.761-2.159-.03-2.95-.805-.805-1.096-.305-1.074 1.846m-82.03-.638c0 1.016 2.557.864 3.638-.216.382-.383-.28-.696-1.471-.696-1.192 0-2.167.41-2.167.912m8.181 3.695c-2.375 1.424-4.066 2.842-3.756 3.151.309.31 1.388-.184 2.398-1.097 2.47-2.236 2.991-2.097 2.821.755-.079 1.329-.325 2.236-.545 2.015-.752-.75-3.035 3.063-3.035 5.069 0 1.875.083 1.89 1.328.25.731-.963 1.602-1.75 1.937-1.75.334 0 .331.787-.008 1.75-.451 1.283-.307 1.468.537.695.634-.581 1.35-3.394 1.59-6.253.24-2.858.714-5.645 1.053-6.194.879-1.423.508-1.284-4.32 1.609M119 175c0 .55.477 1 1.059 1s.781-.45.441-1-.816-1-1.059-1-.441.45-.441 1m84 .059c0 .582.45.781 1 .441s1-.816 1-1.059-.45-.441-1-.441-1 .477-1 1.059m2.564 3.648c-.542 1.425-.428 1.54.56.56.684-.679.991-1.486.683-1.793-.308-.308-.867.247-1.243 1.233m-5.072.195c.524.904.183 1.862-.961 2.699-1.473 1.077-2.028 1.045-3.259-.186-1.976-1.976-4.145-.203-3.552 2.902.258 1.349-.222 2.855-1.158 3.632-1.349 1.119-1.919 1.038-3.642-.521-1.747-1.582-2.173-1.638-2.948-.388-.616.992-.356 1.994.811 3.128 1.47 1.428 2.51 1.518 7.217.63 3.025-.571 7.975-1.322 11-1.668 5.806-.665 6.986-1.978 3.25-3.617-1.238-.543-2.25-1.477-2.25-2.076s-1.198-2.179-2.661-3.513c-1.464-1.333-2.295-1.793-1.847-1.022m7.875 1.347c.073 1.512.386 2.75.694 2.75.309.001 1.547.919 2.75 2.04 1.204 1.121 2.189 1.597 2.189 1.057 0-.541-.798-1.571-1.772-2.289-.975-.719-2.273-2.432-2.883-3.807l-1.111-2.5.133 2.749m-96.336.251c0 .55.436 1.675.969 2.5.533.825.969 1.05.969.5s-.436-1.675-.969-2.5c-.533-.825-.969-1.05-.969-.5m16.522 2.415a1.116 1.116 0 00.362 1.532c.521.322 1.21.159 1.532-.362a1.116 1.116 0 00-.362-1.532 1.116 1.116 0 00-1.532.362m-17.902 5.553c-.31.807-.133 1.734.393 2.059.526.325.956-.336.956-1.468 0-2.415-.556-2.658-1.349-.591m7.349-.069c0 .617 1.125 2.335 2.5 3.818 1.375 1.482 2.5 3.135 2.5 3.672 0 1.06 1.526 1.605 7.134 2.547 2.805.472 3.775.243 4.253-1.003 1.018-2.653-.425-3.691-4.389-3.16-4.926.661-6.904-.476-4.942-2.841 1.293-1.558 1.217-1.653-.808-1.011-1.707.542-2.105.37-1.684-.728.369-.962-.294-1.599-2.006-1.927-1.514-.289-2.558-.031-2.558.633m90.5 3.198c-3.3 1.869-7.012 3.922-8.25 4.562-2.888 1.491-2.836 2.411.25 4.433 4.886 3.202 2.712 5.407-5.332 5.409-4.291 0-4.68.205-4.814 2.536-.124 2.132.089 2.34 1.333 1.308 1.561-1.296 3.468-1.73 9.525-2.167 2.041-.147 4.029-.585 4.416-.973 1.363-1.363 5.018-.684 7.183 1.334 2.544 2.369 2.882 1.396.632-1.816-.856-1.223-1.274-2.223-.928-2.223.345 0-.009-.637-.787-1.415s-2.048-1.382-2.822-1.342c-3.856.198-6.708-.384-8.465-1.73-1.914-1.466-1.913-1.483.059-1.221 1.1.146 2.597.638 3.327 1.093.856.535 2.038.064 3.336-1.329 1.495-1.605 2.342-1.882 3.307-1.081.959.796 1.455.662 1.906-.513.343-.893 1.119-1.274 1.771-.871.723.446.892.281.448-.436-.392-.635-1.361-1.155-2.154-1.155-2.034 0-1.794-.894.809-3.004 3.975-3.222 1.43-2.901-4.75.601m-95.869 7.105c-1.005 1.005-.73 2.477.34 1.816.533-.33 2.446.115 4.25.99 3.032 1.469 3.128 1.467 1.279-.033-3.044-2.468-5.169-3.472-5.869-2.773m14.036.965c-.367.366-.667 1.131-.667 1.7 0 .626.466.567 1.183-.15.651-.651.951-1.416.667-1.7-.284-.285-.817-.217-1.183.15M190 200c0 .55.702 1 1.559 1s1.281-.45.941-1c-.34-.55-1.041-1-1.559-1s-.941.45-.941 1m-79 5.895c.825.46 2.85 1.124 4.5 1.478l3 .643-2.5-1.472c-1.375-.81-3.4-1.475-4.5-1.478-1.6-.004-1.7.162-.5.829m-2.427 4.626c-1.06.802-1.695 1.691-1.411 1.975.285.284 1.334-.386 2.332-1.49 2.127-2.349 1.783-2.53-.921-.485M119 211.686c0 2.014 13.333 5.203 14.418 3.447.355-.575 1.419-.753 2.364-.395 1.471.556 1.442.371-.202-1.285-1.342-1.353-2.044-1.562-2.333-.694-.471 1.413-3.247 1.709-3.247.347 0-.492-1.012-.917-2.25-.944-1.237-.027-3.713-.351-5.5-.719-1.787-.369-3.25-.259-3.25.243m94.564 1.607c.376.986.935 1.541 1.243 1.233.308-.307.001-1.114-.683-1.793-.988-.98-1.102-.865-.56.56m5.436 1.1c0 .216.698.661 1.552.989.89.341 1.291.173.941-.393-.587-.951-2.493-1.406-2.493-.596m-9 1.489c0 .55.45 1.278 1 1.618.55.34 1 .168 1-.382s-.45-1.278-1-1.618c-.55-.34-1-.168-1 .382m-26.921 2.899c-.114 1.855 2.85 2.705 4.238 1.216.938-1.006.726-1.159-1.019-.739-1.211.291-2.413.015-2.671-.614-.315-.769-.495-.724-.548.137m-76.311 4.387c.582.582 1.647.86 2.369.62.749-.25.295-.703-1.057-1.057-1.663-.435-2.054-.305-1.312.437m95.785-.253a1.116 1.116 0 00.362 1.532c.521.322 1.21.159 1.532-.362a1.116 1.116 0 00-.362-1.532 1.116 1.116 0 00-1.532.362m-107.617 3.024c1.19.753 1.211 1.178.127 2.485-.81.976-.899 1.576-.235 1.576.59 0 1.545-.787 2.122-1.75.974-1.624 1.188-1.587 2.978.521 1.06 1.25 2.188 1.851 2.506 1.336.318-.515.013-1.165-.678-1.445-.988-.401-.972-.709.075-1.445.979-.688.483-1.104-1.875-1.576-1.763-.352-3.937-.634-4.831-.626-1.362.013-1.392.163-.189.924m9.877 6.744c.721.289 1.584.253 1.916-.079.332-.332-.258-.568-1.312-.525-1.165.048-1.402.285-.604.604m-8.734 2.9c.048 1.165.285 1.402.604.605.289-.722.253-1.585-.079-1.917-.332-.332-.568.258-.525 1.312m5.734 14.1c.721.289 1.584.253 1.916-.079.332-.332-.258-.568-1.312-.525-1.165.048-1.402.285-.604.604" fill="#1976D2" fill-rule="evenodd"/></svg>